<?xml version="1.0" encoding="UTF-8"?>
<svg id="Layer_1" data-name="Layer 1" xmlns="http://www.w3.org/2000/svg" viewBox="0 0 360 360">
  <defs>
    <style>
      .cls-1 {
        fill: #2940d3;
        stroke-width: 0px;
      }
    </style>
  </defs>
  <path class="cls-1" d="m126.12,206.33V51.64c0-26.72-21.69-48.41-48.41-48.41S29.3,24.92,29.3,51.64v154.69c0,9.99.63,19.54,1.89,28.53,1.58,11.26,5.69,27.48,19.04,40.62,11.81,11.63,25.44,14.85,34.25,16.93,23.4,5.53,42.53-.25,51.02-2.93,15.23-4.82,24.97-11.91,27.32-13.66,4.29-3.18,8.22-6.74,11.73-10.58-33.46-1.89-48.44-24.28-48.44-58.92Z"/>
  <path class="cls-1" d="m282.29,3.23h-.52c-26.72,0-48.41,21.69-48.41,48.41v154.69c0,4.7-.3,9.18-.89,13.4-.15,1.74-.37,3.52-.63,5.26-4.59,32.05-21.43,60.4-47.37,79.79-21.17,15.84-46.37,24.17-72.35,24.17-5.85,0-11.69-.41-17.54-1.26-6.03-.85-11.92-2.18-17.58-3.89,25.98,21.95,60.84,32.97,100.26,32.97,83.94,0,153.44-50.63,153.44-150.44V51.64c0-26.72-21.69-48.41-48.41-48.41Z"/>
</svg>