<svg width="500" height="500" viewBox="0 0 500 500" fill="none" xmlns="http://www.w3.org/2000/svg">
<g clip-path="url(#clip0_148_4254)">
<g opacity="0.4">
<path d="M27.9979 240.16C27.1239 248.011 27.5239 256.054 29.6859 263.549C31.8259 271.006 35.7899 277.957 41.4269 282.643C42.8229 283.815 44.2989 284.855 45.8349 285.745C47.3849 286.617 49.0039 287.316 50.6469 287.867C53.9319 288.986 57.3669 289.377 60.7439 289.216C67.5259 288.85 74.0569 286.285 79.9949 282.593C80.3529 282.361 80.7659 282.121 81.0769 281.899L81.9329 281.262C82.4919 280.799 83.0479 280.363 83.5879 279.853C84.6759 278.88 85.7169 277.784 86.7069 276.572C88.6899 274.184 90.5549 271.434 92.2229 268.443C95.6189 262.479 98.5079 255.727 101.223 248.754C106.623 234.734 111.37 219.779 116.703 204.651C118.033 200.863 119.42 197.066 120.868 193.256C122.281 189.434 123.811 185.616 125.397 181.778C128.605 174.097 132.082 166.405 136.812 158.614C138.011 156.663 139.3 154.703 140.785 152.733C141.528 151.751 142.34 150.751 143.197 149.785C144.06 148.839 144.952 147.933 145.873 147.075C149.566 143.637 153.654 141 157.74 138.923C165.924 134.734 174.08 132.48 181.938 130.148C189.819 127.908 197.511 125.745 204.895 122.982C212.27 120.231 219.334 116.885 225.727 112.668C232.136 108.485 237.778 103.325 242.342 97.407C246.889 91.461 250.481 84.826 252.088 78.134C252.892 74.801 253.241 71.492 253.054 68.383C252.846 65.275 252.122 62.382 250.907 59.901C248.509 54.902 244.365 51.572 239.445 49.971C236.992 49.142 234.328 48.765 231.579 48.724C228.824 48.717 225.972 49.067 223.103 49.767C222.386 49.942 221.668 50.151 220.951 50.363L218.39 51.132C216.693 51.67 215.011 52.23 213.352 52.848C210.032 54.079 206.775 55.447 203.537 57.012C197.063 60.107 190.603 64.021 183.432 68.184C176.301 72.351 168.366 76.573 159.926 79.962C151.465 83.29 142.641 85.841 133.842 87.452C132.741 87.683 131.643 87.831 130.543 88.018L127.586 88.494C125.952 88.768 124.298 89.092 122.644 89.449C119.339 90.181 116.048 91.083 112.831 92.135C99.9389 96.381 88.3259 103.106 79.4879 112.592C75.0299 117.306 71.1089 122.635 67.7809 128.608C66.1029 131.585 64.5639 134.72 63.2229 138.007C61.8299 141.279 60.6519 144.703 59.5689 148.227C58.5169 151.756 57.5989 155.393 56.8519 159.115C56.4859 160.863 56.1049 163.154 55.7119 165.219C55.2809 167.324 54.8479 169.417 54.3449 171.494C52.3429 179.801 49.7919 187.868 46.7269 195.62C43.7229 203.393 40.2249 210.846 36.7209 218.172C34.9599 221.832 33.2019 225.467 31.5879 229.119C30.0059 232.76 28.4889 236.491 27.9979 240.16ZM24.8979 239.826C25.1269 237.641 25.6779 235.599 26.2849 233.614C26.8799 231.623 27.5939 229.703 28.2869 227.79C29.6869 223.967 31.1479 220.212 32.4359 216.411C33.7479 212.621 34.9199 208.8 35.9219 204.953C36.9239 201.106 37.6869 197.212 38.3269 193.327C39.5299 185.535 39.9449 177.702 39.5889 169.975C39.5209 168.045 39.3739 166.118 39.2259 164.203C39.0449 162.244 38.8389 160.508 38.6619 158.232C38.3049 153.904 38.1419 149.508 38.2729 145.064C38.5029 136.18 39.8469 127.066 42.7259 118.145C45.5899 109.242 50.0149 100.567 55.8989 92.911C61.7769 85.251 68.9619 78.595 76.8229 73.168C84.6969 67.734 93.2369 63.528 102.058 60.457C106.47 58.912 110.958 57.656 115.528 56.672C117.811 56.168 120.121 55.758 122.468 55.41L128.155 54.58C135.238 53.446 142.078 51.929 148.741 49.671C155.446 47.509 161.996 44.561 169.079 41.142C176.134 37.74 183.791 33.817 192.145 30.563C196.309 28.939 200.605 27.466 204.971 26.272C207.153 25.669 209.351 25.14 211.55 24.65L214.859 23.974C216.11 23.752 217.364 23.548 218.635 23.39C223.709 22.748 228.981 22.713 234.245 23.553C239.504 24.358 244.748 26.054 249.577 28.693C254.396 31.341 258.761 34.973 262.169 39.34C265.601 43.685 268.044 48.743 269.312 53.926C270.617 59.109 270.776 64.368 270.136 69.299C269.517 74.243 268.106 78.882 266.233 83.146C262.396 91.662 257.023 98.763 251.032 104.972C248.04 108.109 244.784 110.961 241.429 113.631C238.04 116.262 234.517 118.676 230.893 120.865C216.363 129.645 200.443 134.666 185.839 141.023C178.565 144.158 171.554 147.71 166.048 152.099C163.319 154.312 161.019 156.712 159.292 159.249C158.86 159.884 158.464 160.528 158.095 161.177C157.736 161.818 157.395 162.47 157.048 163.183C156.36 164.607 155.703 166.183 155.084 167.826C153.842 171.122 152.756 174.711 151.745 178.377C150.684 182.035 149.757 185.809 148.769 189.609L145.854 201.135C144.878 205.012 143.875 208.911 142.797 212.815C138.475 228.426 133.457 244.273 125.755 259.736C121.852 267.443 117.297 275.09 111.259 282.217C109.724 283.983 108.132 285.723 106.39 287.397C104.675 289.078 102.832 290.702 100.82 292.194C98.8359 293.701 96.6959 295.101 94.4069 296.326C93.2869 296.96 92.0729 297.495 90.8779 298.019L89.0339 298.741C88.4399 298.96 87.9229 299.112 87.3649 299.298C82.9669 300.698 78.3979 301.729 73.7129 302.164C69.0379 302.608 64.2519 302.446 59.6069 301.533C54.9579 300.655 50.4869 298.921 46.4989 296.564C44.5069 295.377 42.6379 294.024 40.9329 292.519C39.2089 291.041 37.6349 289.425 36.2209 287.71C30.5559 280.81 27.3879 272.65 25.7729 264.49C24.1629 256.292 24.0749 247.984 24.8979 239.826Z" fill="#EBEBEB"/>
<path d="M336.036 440.151C326.895 441.453 318.04 444.346 309.538 448.004C301.01 451.636 292.804 456.017 284.528 460.482C280.37 462.679 276.219 464.966 271.919 467.099C267.628 469.27 263.203 471.331 258.477 473.076C253.75 474.803 248.708 476.258 243.128 476.842C237.59 477.419 231.358 477.042 225.281 474.825C223.773 474.284 222.319 473.558 220.833 472.888C219.421 472.111 218.028 471.268 216.64 470.408C215.352 469.468 214.061 468.491 212.808 467.48C211.654 466.419 210.504 465.337 209.36 464.237C205.185 459.994 201.639 454.991 198.836 449.668C196.02 444.343 194.062 438.702 192.703 433.147C191.368 427.577 190.622 422.076 190.247 416.732C189.51 406.039 190.094 395.944 190.804 386.34L191.943 372.232C192.133 369.927 192.255 367.657 192.408 365.395L192.608 362.033L192.737 358.708C192.834 354.301 192.887 349.985 192.551 345.789C192.299 341.59 191.682 337.473 190.781 333.683C189.834 329.759 188.316 325.665 186.502 321.55C184.689 317.431 182.606 313.272 180.361 309.106C175.861 300.75 170.756 292.413 165.781 283.8L162.083 277.279C160.884 275.058 159.701 272.835 158.573 270.547C156.266 266.009 154.212 261.26 152.578 256.248C150.974 251.241 149.847 245.883 149.894 240.366C149.911 234.863 151.228 229.314 153.623 224.492C154.789 222.047 156.283 219.864 157.836 217.755L160.309 214.756C161.151 213.802 162.027 212.947 162.888 212.039C166.417 208.532 170.232 205.276 174.375 202.444C178.559 199.686 182.978 197.235 187.646 195.319C188.821 194.867 189.971 194.327 191.166 193.926L194.756 192.706C197.184 192.021 199.624 191.325 202.104 190.824C212.015 188.71 222.275 188.255 232.382 189.142C237.438 189.561 242.482 190.248 247.451 191.252C252.447 192.182 257.347 193.48 262.217 194.896C264.624 195.662 267.074 196.362 269.449 197.222L273.04 198.468L276.587 199.815C281.307 201.651 285.944 203.663 290.512 205.83C292.787 206.926 295.04 208.061 297.302 209.19C299.527 210.371 301.757 211.56 303.959 212.788C306.138 214.047 308.359 215.257 310.509 216.565C312.645 217.894 314.826 219.17 316.927 220.549L329.064 228.4C331.032 229.675 333.035 230.88 335.016 232.123L337.995 233.974L341.003 235.762C357.012 245.412 373.467 253.703 390.406 261.285C398.932 265.066 407.536 268.693 416.645 272.81C421.193 274.843 425.856 277.139 430.68 279.839C435.461 282.576 440.439 285.767 445.147 289.792C449.866 293.779 454.241 298.556 457.801 303.66C461.43 308.753 464.16 314.108 466.429 319.351C467.625 321.989 468.535 324.589 469.5 327.206C469.955 328.508 470.345 329.796 470.768 331.091C471.183 332.383 471.607 333.658 471.953 335.053L473.03 339.15L473.551 341.199L473.951 343.321C474.469 346.159 475.025 348.951 475.225 351.909C475.363 353.369 475.5 354.823 475.599 356.282L475.614 360.75L475.598 362.975C475.579 363.717 475.477 364.476 475.416 365.224L474.964 369.709C474.739 371.199 474.391 372.688 474.095 374.165L473.622 376.376C473.438 377.108 473.19 377.829 472.974 378.553C472.521 379.997 472.076 381.438 471.589 382.858C471.013 384.249 470.402 385.621 469.788 386.983C467.191 392.341 463.998 397.343 460.123 401.444L458.715 403.022C458.225 403.52 457.715 403.988 457.215 404.469C456.207 405.418 455.217 406.386 454.186 407.286C452.045 408.954 449.985 410.73 447.752 412.139C443.405 415.2 438.788 417.506 434.22 419.689C429.588 421.709 424.957 423.546 420.26 424.988C410.892 427.967 401.491 430.098 392.106 431.84C389.755 432.251 387.423 432.732 385.069 433.081C382.722 433.461 380.395 433.91 378.047 434.246C375.708 434.621 373.362 434.954 371.025 435.301L364.015 436.319L336.036 440.151ZM335.52 437.092C344.786 435.747 353.993 434.061 363.063 431.895L366.461 431.077L369.836 430.179C372.093 429.609 374.315 428.919 376.54 428.252C380.997 426.947 385.379 425.427 389.704 423.812C398.346 420.572 406.683 416.666 414.376 412.056C418.257 409.805 421.87 407.242 425.34 404.637C428.701 401.915 431.955 399.144 434.68 396.078C436.151 394.63 437.304 392.98 438.583 391.461L440.246 389.046C440.519 388.646 440.808 388.257 441.067 387.855L441.763 386.608C443.736 383.355 445.045 379.945 445.993 376.534C446.192 375.665 446.393 374.807 446.629 373.968L447.017 371.346C447.077 370.91 447.172 370.489 447.21 370.048L447.263 368.707C447.291 367.813 447.382 366.946 447.385 366.051L447.29 363.336C447.268 362.883 447.293 362.445 447.24 361.983L447.068 360.595L446.771 357.836L446.218 355.016C445.534 351.267 444.356 347.416 443.038 343.555C442.757 342.605 442.347 341.596 441.957 340.595C441.564 339.602 441.194 338.582 440.787 337.611C439.934 335.719 439.15 333.759 438.236 332.01C436.465 328.418 434.551 325.153 432.419 322.398C430.278 319.624 427.975 317.25 425.256 315.05C419.87 310.671 412.459 306.838 404.106 302.902C399.961 300.925 395.643 298.958 391.244 296.928C386.857 294.923 382.434 292.742 378.005 290.578C360.245 281.804 342.885 271.601 326.484 260.355L323.395 258.26L320.348 256.109C318.324 254.667 316.275 253.26 314.274 251.791L302.602 243.17C298.875 240.44 295.102 237.798 291.311 235.19L285.569 231.386C283.638 230.16 281.709 228.918 279.763 227.716C275.848 225.372 271.938 222.991 267.926 220.872L264.93 219.24L261.904 217.696C259.891 216.629 257.837 215.73 255.794 214.745C247.579 211.049 239.147 207.875 230.523 205.867C226.21 204.818 221.864 204.185 217.505 203.752C213.138 203.291 208.784 203.345 204.469 203.709C195.821 204.398 187.458 207.034 179.954 211.337C176.235 213.543 172.736 216.158 169.545 219.155C168.769 219.919 167.938 220.667 167.202 221.442L165.117 223.799C163.877 225.46 162.676 227.148 161.789 228.974C159.927 232.582 158.992 236.561 159.06 240.689C159.113 244.816 160.117 249.068 161.723 253.212C163.312 257.372 165.527 261.406 167.92 265.382C170.378 269.327 173.084 273.199 175.967 277.007C181.704 284.638 187.984 292.084 194.133 300.015C197.196 304.002 200.215 308.137 203.073 312.555C205.927 316.971 208.643 321.681 210.891 326.941C215.426 337.697 217.177 348.569 217.934 359.033C219.298 379.91 216.631 399.123 217.017 416.344C217.196 424.935 218.139 432.861 220.638 439.88C221.873 443.406 223.581 446.708 225.689 449.88C227.665 452.791 229.827 455.146 232.529 456.853C235.213 458.572 238.548 459.759 242.407 460.228C246.253 460.715 250.508 460.54 254.836 459.955C259.174 459.373 263.606 458.413 268.05 457.282C272.473 456.076 276.932 454.746 281.353 453.262C290.235 450.365 299.053 447.055 308.012 444.108C316.958 441.136 326.08 438.517 335.52 437.092Z" fill="#EBEBEB"/>
<path d="M293.154 88.995C296.336 88.178 299.331 87.688 302.251 87.349C303.713 87.157 305.13 87.048 306.562 86.923C307.967 86.842 309.394 86.763 310.775 86.735C313.56 86.626 316.271 86.701 318.976 86.79C329.724 87.217 339.992 88.862 350.118 90.428L353.708 90.968L355.301 91.204L356.928 91.327C358.015 91.434 359.149 91.401 360.272 91.427C361.412 91.38 362.551 91.334 363.718 91.243C364.882 91.142 366.041 91.032 367.227 90.846C368.397 90.676 369.584 90.489 370.774 90.256C373.138 89.774 375.557 89.26 377.939 88.593C387.582 86.048 397.112 82.277 407.744 79.843C413.09 78.72 418.828 77.893 424.92 78.543C427.974 78.787 431.022 79.568 434.022 80.545C435.491 81.096 436.992 81.645 438.388 82.357C439.101 82.707 439.829 83.041 440.517 83.412L442.543 84.606C445.246 86.231 447.679 88.138 449.995 90.145C451.175 91.163 452.295 92.403 453.442 93.567C454.557 94.765 455.486 96.057 456.509 97.335C457.499 98.614 458.292 99.958 459.168 101.314C459.616 101.988 459.968 102.677 460.33 103.362L461.428 105.446L461.964 106.498L462.415 107.561L463.302 109.704C463.947 111.127 464.385 112.561 464.853 114.018C466.689 119.804 467.671 125.683 467.992 131.492C468.267 137.297 467.93 143.046 467.051 148.658C466.159 154.264 464.618 159.717 462.634 164.973C462.122 166.282 461.584 167.579 461.041 168.866C460.476 170.151 459.833 171.41 459.224 172.667C458.628 173.93 457.955 175.167 457.261 176.379C456.571 177.6 455.9 178.814 455.13 179.999C452.206 184.746 448.793 189.203 445.179 193.369C441.538 197.523 437.658 201.401 433.48 204.848C429.329 208.307 424.981 211.429 420.356 214.001C415.728 216.563 410.807 218.536 405.657 219.65C400.461 220.76 394.935 220.627 389.678 219.279C384.418 217.954 379.43 215.623 374.712 212.921C365.289 207.435 356.636 200.62 348.673 193.452C344.679 189.85 340.928 186.1 337.364 182.255C336.865 181.678 336.582 181.519 336.256 181.221L335.322 180.41C334.603 179.928 334.052 179.36 333.302 178.913L332.28 178.191C331.905 177.967 331.524 177.757 331.174 177.513C330.488 177.03 329.625 176.637 328.901 176.168C325.711 174.406 322.083 172.69 317.907 171.028L311.329 168.438L307.807 167.059L304.131 165.539C301.642 164.533 299.024 163.276 296.361 161.958C293.68 160.536 290.908 158.993 288.124 157.042C285.322 155.043 282.508 152.837 279.886 150.001C277.283 147.213 274.852 144.004 273.012 140.446L272.296 139.128L271.687 137.77C271.295 136.863 270.88 135.953 270.527 135.031C269.927 133.202 269.252 131.323 268.909 129.496L268.331 126.735L267.983 124.052C267.719 122.228 267.703 120.531 267.641 118.796C267.621 118.336 267.609 117.985 267.605 117.452C267.614 116.748 267.649 116.055 267.694 115.359C267.739 113.995 268.003 112.503 268.324 111.044C268.401 110.692 268.483 110.327 268.579 109.967L268.925 108.866C269.17 108.138 269.431 107.426 269.702 106.71C270.319 105.328 271.038 103.95 271.833 102.711C272.247 102.107 272.665 101.513 273.101 100.935C273.322 100.639 273.542 100.343 273.764 100.08L274.451 99.316C274.906 98.819 275.379 98.338 275.861 97.853C276.333 97.372 276.798 97.016 277.283 96.596C277.756 96.203 278.248 95.803 278.732 95.44L280.144 94.477C280.618 94.173 281.109 93.829 281.568 93.576L282.936 92.818C286.614 90.897 289.976 89.822 293.154 88.995Z" fill="#EBEBEB"/>
<path d="M146.71 354.004C147.315 357.52 147.513 360.862 147.42 364.087C147.327 370.549 145.871 376.464 144.276 382.228C142.658 388.003 140.69 393.615 138.233 399.03C135.73 404.421 132.679 409.591 128.883 414.33C125.076 419.057 120.698 423.493 115.47 427.289C110.219 431.015 103.698 433.751 96.5486 434.822C92.9856 435.346 89.2716 435.451 85.6506 435.043C82.0416 434.612 78.5476 433.693 75.4976 432.307C72.4236 430.945 69.8036 429.21 67.5336 427.37C65.2516 425.519 63.2836 423.563 61.3746 421.595C60.3736 420.5 59.4766 419.324 58.6846 418.055C57.9396 416.762 57.3226 415.4 56.7866 413.98C55.7966 411.139 55.1686 408.112 54.7606 405.026C53.9456 398.855 53.7706 392.253 54.5506 385.931C55.3306 379.608 57.2866 373.717 60.3606 368.687C63.4346 363.657 67.4636 359.384 72.2136 355.972C76.9406 352.525 82.4946 350.057 87.9326 347.81C93.4516 345.621 98.7956 343.56 103.873 341.161C109.043 338.844 113.863 336.096 120.046 334.175C121.606 333.709 123.26 333.278 125.111 333.08C126.939 332.847 128.953 332.801 131.142 333.173C133.494 333.569 136.312 334.884 138.384 336.701C138.885 337.155 139.42 337.644 139.851 338.133C140.282 338.622 140.713 339.123 141.12 339.647C141.83 340.637 142.54 341.708 143.041 342.698C143.623 343.746 144.007 344.677 144.438 345.702C144.787 346.634 145.183 347.658 145.428 348.555L145.836 349.964L146.174 351.326C146.396 352.246 146.547 353.107 146.71 354.004Z" fill="#EBEBEB"/>
</g>
<path d="M169.243 230.369C169.243 237.255 163.69 242.585 156.803 242.585H154.582V259.468C154.582 266.354 149.251 271.684 142.367 271.684C135.48 271.684 130.149 266.353 130.149 259.468V242.585H60.6239H60.4019H60.1799C57.5149 242.585 54.8489 241.919 52.6269 239.92C47.0739 235.7 46.4079 228.149 50.6289 222.816L132.815 120.638C133.037 120.638 133.037 120.416 133.26 120.195C133.482 119.973 133.705 119.75 133.927 119.306C134.591 119.084 134.813 118.863 135.036 118.64C135.258 118.418 135.703 118.195 135.925 117.973C136.37 117.751 136.592 117.528 137.256 117.528C137.478 117.085 137.701 116.862 138.145 116.862C138.367 116.64 138.812 116.64 139.479 116.417C139.701 116.417 140.143 116.417 140.366 116.195C140.811 116.195 141.478 116.195 141.922 116.195C141.922 116.195 142.144 116.195 142.367 116.195C142.59 116.195 142.59 116.195 142.809 116.195C143.254 116.195 143.921 116.195 144.143 116.195C144.588 116.417 144.81 116.417 145.255 116.417C145.475 116.64 146.142 116.64 146.586 116.862C146.808 116.862 147.253 117.084 147.475 117.084C147.92 117.527 148.362 117.75 148.584 117.972C149.029 118.194 149.251 118.417 149.696 118.639C149.696 118.639 149.918 118.639 149.918 118.862C150.14 118.862 150.585 119.083 150.585 119.305C151.03 119.75 151.249 119.972 151.472 120.194C151.694 120.415 151.917 120.86 152.139 121.082C152.361 121.305 152.584 121.527 153.028 122.192C153.028 122.415 153.251 122.859 153.473 123.082C153.695 123.525 153.695 123.748 153.918 124.415C153.918 124.636 154.138 125.081 154.138 125.303C154.36 125.748 154.36 125.969 154.36 126.636C154.36 127.081 154.582 127.303 154.582 127.746C154.582 127.968 154.582 128.191 154.582 128.413V218.152H156.803C163.69 218.153 169.243 223.706 169.243 230.369ZM130.15 163.287L85.9468 218.153H130.15V163.287Z" fill="#4B5563"/>
<path d="M452.105 230.369C452.105 237.255 446.552 242.585 439.665 242.585H437.442V259.468C437.442 266.354 432.111 271.684 425.23 271.684C418.343 271.684 413.012 266.353 413.012 259.468V242.585H343.485H343.263H343.04C340.372 242.585 337.709 241.919 335.486 239.92C329.933 235.7 329.266 228.149 333.49 222.816L415.674 120.638C415.896 120.638 415.896 120.416 416.119 120.195C416.341 119.973 416.564 119.75 416.786 119.306C417.453 119.084 417.675 118.863 417.898 118.64C418.12 118.418 418.565 118.195 418.787 117.973C419.231 117.751 419.454 117.528 420.115 117.528C420.337 117.085 420.56 116.862 421.004 116.862C421.227 116.64 421.671 116.64 422.338 116.417C422.56 116.417 423.005 116.417 423.227 116.195C423.672 116.195 424.339 116.195 424.783 116.195C424.783 116.195 425.006 116.195 425.228 116.195C425.45 116.195 425.45 116.195 425.667 116.195C426.112 116.195 426.779 116.195 427.001 116.195C427.446 116.417 427.668 116.417 428.113 116.417C428.335 116.64 429.003 116.64 429.447 116.862C429.669 116.862 430.114 117.084 430.336 117.084C430.78 117.527 431.22 117.75 431.442 117.972C431.887 118.194 432.109 118.417 432.553 118.639C432.553 118.639 432.776 118.639 432.776 118.862C432.998 118.862 433.443 119.083 433.443 119.305C433.888 119.75 434.11 119.972 434.332 120.194C434.554 120.415 434.777 120.86 434.999 121.082C435.222 121.305 435.444 121.527 435.888 122.192C435.888 122.415 436.11 122.859 436.333 123.082C436.555 123.525 436.555 123.748 436.778 124.415C436.778 124.636 436.995 125.081 436.995 125.303C437.217 125.748 437.217 125.969 437.217 126.636C437.217 127.081 437.439 127.303 437.439 127.746C437.439 127.968 437.439 128.191 437.439 128.413V218.152H439.662C446.552 218.153 452.105 223.706 452.105 230.369ZM413.012 163.287L368.804 218.153H413.012V163.287Z" fill="#4B5563"/>
<path d="M179.86 189.008L182.121 176.344C182.768 172.719 180.355 169.256 176.73 168.609C173.105 167.962 169.642 170.376 168.995 174L166.734 186.663C166.087 190.288 168.5 193.751 172.125 194.398C175.749 195.047 179.213 192.634 179.86 189.008Z" fill="#2940D3"/>
<path d="M333.302 191.937L331.463 179.205C330.937 175.56 327.556 173.033 323.912 173.559C320.268 174.085 317.741 177.466 318.267 181.11L320.105 193.842C320.631 197.486 324.012 200.014 327.656 199.488C331.3 198.962 333.828 195.581 333.302 191.937Z" fill="#2940D3"/>
<path d="M201.758 142.446L206.81 137.732C209.502 135.22 209.648 131.001 207.136 128.309C204.624 125.617 200.405 125.471 197.713 127.983L192.661 132.697C189.969 135.209 189.823 139.428 192.335 142.12C194.847 144.812 199.066 144.958 201.758 142.446Z" fill="#2940D3"/>
<path d="M208.832 247.508L204.118 242.456C201.606 239.764 197.387 239.618 194.695 242.13C192.003 244.642 191.857 248.861 194.369 251.553L199.083 256.605C201.595 259.297 205.814 259.443 208.506 256.931C211.198 254.42 211.344 250.201 208.832 247.508Z" fill="#2940D3"/>
<path d="M323.47 155.533L314.364 142.468C313.682 141.49 312.336 141.249 311.358 141.931L303.962 147.086C302.984 147.768 302.743 149.114 303.425 150.092L312.531 163.157C313.213 164.135 314.559 164.376 315.537 163.694L322.933 158.539C323.911 157.857 324.152 156.511 323.47 155.533Z" fill="#2940D3"/>
<path d="M276.34 271.102L282.838 268.753C286.301 267.501 288.093 263.679 286.841 260.216C285.589 256.753 281.767 254.961 278.304 256.213L271.806 258.562C268.343 259.814 266.551 263.636 267.803 267.099C269.055 270.561 272.877 272.353 276.34 271.102Z" fill="#2940D3"/>
<path d="M263.477 269.093C305.333 261.812 333.36 221.978 326.078 180.123C318.796 138.268 278.963 110.241 237.108 117.522C195.253 124.804 167.225 164.637 174.507 206.493C181.789 248.348 221.622 276.375 263.477 269.093Z" fill="#2940D3"/>
<path opacity="0.2" d="M242.98 135.095C245.257 137.887 246.466 141.563 246.617 145.288C246.796 149.036 245.784 152.834 243.982 156.128C242.099 159.445 238.985 162.324 235.265 163.377C231.614 164.515 227.724 164.27 224.422 162.873C227.982 162.896 231.405 162.312 234.322 160.932C235.774 160.236 237.1 159.357 238.197 158.237C239.37 157.2 240.244 155.859 241.05 154.494C241.434 153.787 241.811 153.05 242.15 152.312C242.433 151.55 242.777 150.805 242.992 150.021C243.563 148.485 243.785 146.86 244.007 145.225C244.326 141.938 244.003 138.509 242.98 135.095Z" fill="black"/>
<path opacity="0.2" d="M222.826 154.536C221.076 152.735 220.111 150.193 219.934 147.588C219.748 144.97 220.386 142.259 221.675 139.959C222.979 137.591 225.287 135.579 227.927 134.895C230.529 134.159 233.251 134.458 235.458 135.629C232.994 135.833 230.739 136.362 228.871 137.341C226.982 138.297 225.645 139.816 224.609 141.593C222.498 145.336 221.829 149.694 222.826 154.536Z" fill="black"/>
<path opacity="0.2" d="M250.629 239.389C251.605 240.889 251.912 242.811 251.634 244.661C251.347 246.516 250.474 248.319 249.155 249.683C247.834 251.119 245.851 252.047 243.922 252.051C242.004 252.079 240.188 251.422 238.846 250.251C240.593 250.482 242.239 250.482 243.703 250.145C245.174 249.806 246.366 249.038 247.368 247.995C248.408 246.91 249.221 245.629 249.78 244.197C250.319 242.752 250.614 241.15 250.629 239.389Z" fill="black"/>
<path opacity="0.2" d="M240.151 247.57C239.325 246.59 239.031 245.233 239.163 243.906C239.315 242.573 239.93 241.268 240.869 240.294C241.82 239.258 243.291 238.588 244.68 238.64C246.06 238.685 247.322 239.227 248.171 240.177C246.918 240.173 245.823 240.267 244.901 240.561C243.977 240.846 243.286 241.331 242.656 241.982C241.332 243.385 240.489 245.094 240.151 247.57Z" fill="black"/>
<path opacity="0.2" d="M203.414 219.295C205.203 219.505 206.872 220.534 208.037 222.093C209.202 223.674 209.715 225.776 209.358 227.797C209.054 229.93 207.507 231.737 205.841 232.601C204.155 233.499 202.316 233.802 200.549 233.467C201.995 232.437 203.302 231.515 204.284 230.467C205.28 229.431 205.873 228.385 206.048 227.225C206.262 225.995 206.175 224.669 205.733 223.369C205.304 222.036 204.486 220.707 203.414 219.295Z" fill="black"/>
<path opacity="0.2" d="M199.866 230.873C198.533 230.922 197.262 230.27 196.352 229.172C195.443 228.051 195.026 226.496 195.292 224.995C195.52 223.387 196.724 222.037 197.966 221.476C199.225 220.889 200.562 220.782 201.816 221.227C200.883 222.146 200.079 222.872 199.522 223.61C198.951 224.342 198.7 224.933 198.601 225.567C198.478 226.278 198.469 227.056 198.654 227.896C198.831 228.768 199.252 229.721 199.866 230.873Z" fill="black"/>
<path opacity="0.2" d="M290.224 141.844C291.422 143.19 291.986 145.068 291.821 147.007C291.642 148.963 290.628 150.875 289.019 152.148C287.374 153.541 285.018 153.863 283.199 153.402C281.343 152.953 279.767 151.957 278.668 150.534C280.433 150.725 282.022 150.904 283.453 150.774C284.886 150.662 286.024 150.273 286.926 149.523C287.903 148.746 288.719 147.697 289.253 146.432C289.816 145.148 290.087 143.611 290.224 141.844Z" fill="black"/>
<path opacity="0.2" d="M279.879 148.141C278.85 147.292 278.333 145.959 278.382 144.535C278.447 143.094 279.169 141.654 280.365 140.709C281.603 139.658 283.401 139.45 284.701 139.855C286.032 140.253 287.103 141.061 287.744 142.227C286.436 142.294 285.352 142.302 284.446 142.484C283.532 142.652 282.952 142.927 282.457 143.335C281.893 143.785 281.369 144.36 280.949 145.111C280.504 145.879 280.186 146.871 279.879 148.141Z" fill="black"/>
<path d="M271.36 207.867C280.555 206.106 286.574 197.185 284.803 187.94C283.033 178.695 274.144 172.628 264.949 174.389C255.754 176.15 249.736 185.071 251.506 194.316C253.277 203.56 262.165 209.628 271.36 207.867Z" fill="#2940D3"/>
<path opacity="0.1" d="M271.36 207.867C280.555 206.106 286.574 197.185 284.803 187.94C283.033 178.695 274.144 172.628 264.949 174.389C255.754 176.15 249.736 185.071 251.506 194.316C253.277 203.56 262.165 209.628 271.36 207.867Z" fill="black"/>
<path opacity="0.2" d="M270.11 179.996C275.119 179.037 280.034 180.633 283.505 183.888C280.279 177.008 272.729 172.891 264.943 174.382C255.753 176.142 249.73 185.069 251.5 194.309C252.777 200.977 257.749 205.993 263.88 207.6C260.867 205.38 258.662 202.061 257.899 198.076C256.294 189.7 261.762 181.595 270.11 179.996Z" fill="black"/>
<path opacity="0.2" d="M289.076 180.031C291.74 183.551 293.129 188.061 293.26 192.608C293.418 197.18 292.171 201.794 289.969 205.806C287.683 209.837 283.941 213.325 279.44 214.661C275.018 216.094 270.271 215.889 266.164 214.325C270.529 214.514 274.809 213.891 278.497 212.215C279.428 211.813 280.27 211.267 281.127 210.764C281.909 210.15 282.76 209.627 283.419 208.878C284.91 207.575 286.017 205.886 287.036 204.172C287.516 203.283 287.984 202.36 288.406 201.433C288.758 200.477 289.188 199.544 289.449 198.558C290.142 196.627 290.412 194.59 290.65 192.544C290.989 188.435 290.486 184.173 289.076 180.031Z" fill="black"/>
<path d="M308.05 174.695C311.291 173.395 312.86 169.7 311.553 166.44C310.246 163.181 306.559 161.593 303.317 162.893C300.076 164.193 298.507 167.888 299.814 171.147C301.122 174.406 304.809 175.994 308.05 174.695Z" fill="#2940D3"/>
<path opacity="0.1" d="M308.05 174.695C311.291 173.395 312.86 169.7 311.553 166.44C310.246 163.181 306.559 161.593 303.317 162.893C300.076 164.193 298.507 167.888 299.814 171.147C301.122 174.406 304.809 175.994 308.05 174.695Z" fill="black"/>
<path opacity="0.2" d="M305.607 164.578C307.373 163.87 309.286 164.104 310.789 165.049C309.117 162.759 306.06 161.79 303.315 162.891C300.075 164.19 298.506 167.888 299.812 171.146C300.754 173.496 302.933 174.979 305.292 175.131C304.03 174.533 302.987 173.474 302.423 172.069C301.239 169.115 302.664 165.758 305.607 164.578Z" fill="black"/>
<path opacity="0.2" d="M312.554 163.239C313.851 164.284 314.739 165.842 315.146 167.519C315.568 169.205 315.447 171.024 314.92 172.68C314.356 174.357 313.187 175.947 311.581 176.747C310.015 177.581 308.223 177.798 306.607 177.429C308.218 177.099 309.702 176.52 310.884 175.637C312.074 174.763 312.869 173.537 313.324 172.158C314.274 169.319 314.042 166.182 312.554 163.239Z" fill="black"/>
<path d="M295.796 233.419C300.013 230.803 301.3 225.245 298.67 221.006C296.04 216.766 290.489 215.449 286.272 218.065C282.055 220.681 280.768 226.239 283.398 230.479C286.028 234.718 291.579 236.035 295.796 233.419Z" fill="#2940D3"/>
<path opacity="0.1" d="M295.796 233.419C300.013 230.803 301.3 225.245 298.67 221.006C296.04 216.766 290.489 215.449 286.272 218.065C282.055 220.681 280.768 226.239 283.398 230.479C286.028 234.718 291.579 236.035 295.796 233.419Z" fill="black"/>
<path opacity="0.2" d="M289.89 219.861C292.187 218.436 294.923 218.293 297.258 219.246C294.356 216.453 289.838 215.847 286.267 218.062C282.052 220.677 280.764 226.238 283.393 230.476C285.29 233.534 288.703 235.074 292.042 234.706C290.129 234.178 288.409 232.954 287.275 231.126C284.892 227.285 286.061 222.236 289.89 219.861Z" fill="black"/>
<path opacity="0.2" d="M299.284 216.281C301.239 217.549 302.795 219.495 303.704 221.726C304.64 223.955 304.894 226.466 304.566 228.863C304.201 231.283 303.02 233.706 301.058 235.221C299.156 236.782 296.768 237.555 294.449 237.603C296.656 236.911 298.657 235.765 300.179 234.248C301.719 232.733 302.595 230.732 302.904 228.625C303.226 226.474 303.077 224.268 302.473 222.164C301.843 220.069 300.799 218.033 299.284 216.281Z" fill="black"/>
<path d="M212.187 185.127C212.394 192.07 206.204 197.887 198.361 198.121C190.518 198.355 183.992 192.916 183.786 185.973C183.579 179.03 189.769 173.213 197.612 172.979C205.454 172.745 211.98 178.184 212.187 185.127Z" fill="#2940D3"/>
<path opacity="0.1" d="M212.187 185.127C212.394 192.07 206.204 197.887 198.361 198.121C190.518 198.355 183.992 192.916 183.786 185.973C183.579 179.03 189.769 173.213 197.612 172.979C205.454 172.745 211.98 178.184 212.187 185.127Z" fill="black"/>
<path opacity="0.2" d="M189.271 188.789C189.384 192.571 191.56 195.867 194.829 197.845C188.652 196.637 183.953 191.848 183.778 185.969C183.571 179.03 189.766 173.208 197.605 172.975C203.262 172.807 208.233 175.583 210.636 179.757C208.291 177.94 205.195 176.888 201.815 176.989C194.707 177.2 189.084 182.485 189.271 188.789Z" fill="black"/>
<path opacity="0.2" d="M210.496 174.598C213.695 175.87 216.458 178.52 217.883 181.948C218.646 183.649 218.874 185.563 218.839 187.418C218.818 189.296 218.304 191.081 217.626 192.871C216.767 194.561 215.686 196.145 214.302 197.383C212.903 198.582 211.413 199.657 209.766 200.351C206.535 201.843 203.044 202.549 199.602 202.406C202.827 201.262 205.888 199.93 208.592 198.202C211.291 196.481 213.538 194.269 214.768 191.579C215.319 190.239 215.786 188.743 215.882 187.233C216.06 185.733 215.954 184.213 215.572 182.73C214.791 179.769 212.972 176.953 210.496 174.598Z" fill="black"/>
<path d="M260.779 410.355L264.838 411.105L265.745 415.384L266.652 411.105L270.711 410.353L266.67 409.365L265.745 405.324L264.821 409.365L260.779 410.355Z" fill="#455A64"/>
<path d="M169.965 260.058L174.024 260.809L174.931 265.087L175.838 260.809L179.897 260.056L175.855 259.069L174.931 255.027L174.006 259.069L169.965 260.058Z" fill="#455A64"/>
<path d="M395.482 258.292L399.541 259.042L400.448 263.321L401.355 259.042L405.414 258.289L401.372 257.302L400.448 253.26L399.523 257.302L395.482 258.292Z" fill="#455A64"/>
<path d="M439.361 372.849L441.629 373.268L442.136 375.66L442.643 373.268L444.912 372.848L442.653 372.296L442.136 370.037L441.62 372.296L439.361 372.849Z" fill="#455A64"/>
<path d="M408.297 95.172L410.565 95.591L411.072 97.983L411.579 95.591L413.848 95.171L411.589 94.619L411.072 92.36L410.556 94.619L408.297 95.172Z" fill="#455A64"/>
<path d="M452.998 166.293L455.267 166.712L455.774 169.104L456.281 166.712L458.549 166.292L456.29 165.74L455.774 163.481L455.257 165.74L452.998 166.293Z" fill="#455A64"/>
<path d="M106.578 198.363L108.847 198.782L109.354 201.174L109.861 198.782L112.13 198.361L109.871 197.81L109.354 195.551L108.837 197.81L106.578 198.363Z" fill="#455A64"/>
<path d="M48.7051 384.688L50.9741 385.107L51.4811 387.498L51.9881 385.107L54.2561 384.686L51.9971 384.134L51.4811 381.875L50.9641 384.134L48.7051 384.688Z" fill="#455A64"/>
<path d="M425.055 325.777L427.324 326.196L427.831 328.588L428.338 326.196L430.607 325.775L428.348 325.224L427.831 322.965L427.314 325.224L425.055 325.777Z" fill="#455A64"/>
<path d="M115.68 398.489L117.948 398.908L118.455 401.3L118.962 398.908L121.231 398.487L118.972 397.936L118.455 395.677L117.939 397.936L115.68 398.489Z" fill="#455A64"/>
<path d="M195.592 104.866L197.861 105.285L198.368 107.677L198.875 105.285L201.143 104.865L198.884 104.313L198.368 102.054L197.851 104.313L195.592 104.866Z" fill="#455A64"/>
<path d="M329.91 171.916L332.178 172.335L332.686 174.727L333.192 172.335L335.461 171.915L333.202 171.363L332.686 169.104L332.169 171.363L329.91 171.916Z" fill="#455A64"/>
<path d="M149.637 351.769L151.905 352.189L152.412 354.58L152.919 352.189L155.188 351.768L152.929 351.216L152.412 348.957L151.896 351.216L149.637 351.769Z" fill="#455A64"/>
<path d="M51.4813 425.74C52.3273 425.74 52.3283 427.055 51.4813 427.055C50.6343 427.055 50.6333 425.74 51.4813 425.74Z" fill="#455A64"/>
<path d="M379.145 345.682C379.991 345.682 379.993 346.997 379.145 346.997C378.299 346.997 378.297 345.682 379.145 345.682Z" fill="#455A64"/>
<path d="M385.354 251.647C386.2 251.647 386.202 252.962 385.354 252.962C384.508 252.962 384.506 251.647 385.354 251.647Z" fill="#455A64"/>
<path d="M339.364 203.165C340.21 203.165 340.212 204.48 339.364 204.48C338.518 204.48 338.516 203.165 339.364 203.165Z" fill="#455A64"/>
<path d="M136.327 434.635C137.173 434.635 137.175 435.95 136.327 435.95C135.481 435.95 135.479 434.635 136.327 434.635Z" fill="#455A64"/>
<path d="M109.354 396.518C110.2 396.518 110.202 397.833 109.354 397.833C108.508 397.833 108.506 396.518 109.354 396.518Z" fill="#455A64"/>
<path d="M177.137 379.064C177.983 379.064 177.985 380.379 177.137 380.379C176.291 380.379 176.29 379.064 177.137 379.064Z" fill="#455A64"/>
<path d="M301.657 396.518C302.503 396.518 302.505 397.833 301.657 397.833C300.811 397.833 300.809 396.518 301.657 396.518Z" fill="#455A64"/>
<path d="M410.436 354.299C411.282 354.299 411.284 355.614 410.436 355.614C409.59 355.614 409.589 354.299 410.436 354.299Z" fill="#455A64"/>
<path d="M382.918 281.555C383.764 281.555 383.766 282.87 382.918 282.87C382.072 282.87 382.071 281.555 382.918 281.555Z" fill="#455A64"/>
<path d="M271.227 395.211C271.826 395.211 271.827 396.142 271.227 396.142C270.628 396.142 270.627 395.211 271.227 395.211Z" fill="#455A64"/>
<path d="M127.497 106.664C128.095 106.664 128.097 107.595 127.497 107.595C126.898 107.594 126.897 106.664 127.497 106.664Z" fill="#455A64"/>
<path d="M308.033 340.912C308.632 340.912 308.633 341.843 308.033 341.843C307.435 341.842 307.434 340.912 308.033 340.912Z" fill="#455A64"/>
<path d="M128.672 400.834C129.271 400.834 129.272 401.765 128.672 401.765C128.073 401.765 128.072 400.834 128.672 400.834Z" fill="#455A64"/>
<path d="M247.64 288.593C248.239 288.593 248.24 289.523 247.64 289.523C247.042 289.524 247.041 288.593 247.64 288.593Z" fill="#455A64"/>
<path d="M348.257 293.935C349.88 293.935 349.882 296.457 348.257 296.457C346.634 296.457 346.632 293.935 348.257 293.935Z" fill="#455A64"/>
<path d="M171.535 120.162L175.594 120.912L176.501 125.191L177.408 120.912L181.467 120.16L177.425 119.172L176.501 115.131L175.577 119.172L171.535 120.162Z" fill="#455A64"/>
<path d="M342.191 154.51L346.25 155.26L347.157 159.538L348.064 155.26L352.123 154.507L348.082 153.52L347.157 149.478L346.233 153.52L342.191 154.51Z" fill="#455A64"/>
<path d="M46.5137 257.112L50.5727 257.862L51.4797 262.141L52.3867 257.862L56.4457 257.11L52.4037 256.122L51.4797 252.081L50.5547 256.122L46.5137 257.112Z" fill="#455A64"/>
<path d="M406.105 53.296L410.164 54.047L411.071 58.325L411.978 54.047L416.037 53.294L411.996 52.307L411.071 48.265L410.147 52.307L406.105 53.296Z" fill="#455A64"/>
<path d="M260.195 62.949L262.464 63.369L262.971 65.76L263.478 63.369L265.746 62.948L263.487 62.396L262.971 60.137L262.454 62.396L260.195 62.949Z" fill="#455A64"/>
<path d="M51.4805 142.842L53.7485 143.262L54.2555 145.653L54.7625 143.262L57.0315 142.841L54.7725 142.289L54.2555 140.03L53.7395 142.289L51.4805 142.842Z" fill="#455A64"/>
<path d="M93.1485 138.873C93.9945 138.873 93.9965 140.188 93.1485 140.188C92.3025 140.188 92.3015 138.873 93.1485 138.873Z" fill="#455A64"/>
<path d="M43.1431 374.454C43.9891 374.454 43.9911 375.769 43.1431 375.769C42.2971 375.769 42.2951 374.454 43.1431 374.454Z" fill="#455A64"/>
<path d="M97.0903 351.768C97.9363 351.768 97.9383 353.083 97.0903 353.083C96.2443 353.083 96.2423 351.768 97.0903 351.768Z" fill="#455A64"/>
<path d="M43.7794 185.247C44.6254 185.247 44.6274 186.562 43.7794 186.562C42.9334 186.563 42.9324 185.247 43.7794 185.247Z" fill="#455A64"/>
<path d="M97.0907 86.361C97.9367 86.361 97.9377 87.676 97.0907 87.676C96.2437 87.676 96.2427 86.361 97.0907 86.361Z" fill="#455A64"/>
<path d="M183.213 52.6381C184.059 52.6381 184.061 53.9531 183.213 53.9531C182.367 53.9531 182.365 52.6381 183.213 52.6381Z" fill="#455A64"/>
<path d="M156.787 287.797C157.386 287.797 157.387 288.728 156.787 288.728C156.189 288.728 156.188 287.797 156.787 287.797Z" fill="#455A64"/>
<path d="M156.338 407.629C156.937 407.629 156.938 408.56 156.338 408.56C155.739 408.56 155.738 407.629 156.338 407.629Z" fill="#455A64"/>
<path d="M394 134.228L396.268 134.648L396.775 137.039L397.283 134.648L399.551 134.227L397.292 133.675L396.775 131.416L396.259 133.675L394 134.228Z" fill="#455A64"/>
<path d="M444.773 252.976L447.042 253.396L447.549 255.787L448.056 253.396L450.324 252.975L448.066 252.423L447.549 250.164L447.032 252.423L444.773 252.976Z" fill="#455A64"/>
<path d="M387.672 136.486C388.518 136.486 388.52 137.801 387.672 137.801C386.826 137.801 386.825 136.486 387.672 136.486Z" fill="#455A64"/>
<path d="M320.498 70.7471C321.097 70.7471 321.098 71.6771 320.498 71.6771C319.899 71.6781 319.898 70.7471 320.498 70.7471Z" fill="#455A64"/>
<path d="M221.545 450.804C222.144 450.804 222.145 451.735 221.545 451.735C220.946 451.735 220.945 450.804 221.545 450.804Z" fill="#455A64"/>
<path d="M434.656 147.597C435.255 147.597 435.256 148.528 434.656 148.528C434.058 148.528 434.057 147.597 434.656 147.597Z" fill="#455A64"/>
<path d="M341.058 124.726C341.657 124.726 341.658 125.657 341.058 125.657C340.46 125.656 340.459 124.726 341.058 124.726Z" fill="#455A64"/>
<path d="M342.405 53.4871C343.004 53.4871 343.005 54.4181 342.405 54.4181C341.806 54.4181 341.805 53.4871 342.405 53.4871Z" fill="#455A64"/>
<path d="M212.067 271.268C213.69 271.268 213.692 273.79 212.067 273.79C210.445 273.79 210.442 271.268 212.067 271.268Z" fill="#455A64"/>
<path d="M384.136 206.745C385.759 206.745 385.761 209.267 384.136 209.267C382.514 209.266 382.511 206.745 384.136 206.745Z" fill="#455A64"/>
<path d="M99.2274 208.006C100.85 208.006 100.852 210.528 99.2274 210.528C97.6054 210.527 97.6024 208.006 99.2274 208.006Z" fill="#455A64"/>
<path d="M446.129 215.608C447.752 215.608 447.754 218.13 446.129 218.13C444.506 218.129 444.503 215.608 446.129 215.608Z" fill="#455A64"/>
<path d="M81.6598 331.027C83.2828 331.027 83.2848 333.549 81.6598 333.549C80.0368 333.549 80.0338 331.027 81.6598 331.027Z" fill="#455A64"/>
<path d="M145.246 84.866L147.514 85.285L148.021 87.676L148.528 85.285L150.797 84.864L148.538 84.312L148.021 82.054L147.505 84.312L145.246 84.866Z" fill="#455A64"/>
<path d="M268.947 322.627L271.215 323.047L271.722 325.438L272.229 323.047L274.498 322.626L272.239 322.074L271.722 319.815L271.206 322.074L268.947 322.627Z" fill="#455A64"/>
<path d="M342.192 431.941C343.038 431.941 343.04 433.256 342.192 433.256C341.346 433.256 341.345 431.941 342.192 431.941Z" fill="#455A64"/>
<path d="M298.598 425.74C299.444 425.74 299.446 427.055 298.598 427.055C297.752 427.055 297.751 425.74 298.598 425.74Z" fill="#455A64"/>
<path d="M312.625 250.001L314.894 250.42L315.401 252.811L315.908 250.42L318.176 249.999L315.917 249.447L315.401 247.189L314.884 249.447L312.625 250.001Z" fill="#455A64"/>
<path d="M390.381 386.332L392.65 386.751L393.156 389.143L393.664 386.751L395.932 386.33L393.673 385.779L393.156 383.52L392.64 385.779L390.381 386.332Z" fill="#455A64"/>
<path d="M411.072 443.647L413.341 444.067L413.848 446.458L414.355 444.067L416.623 443.646L414.365 443.094L413.848 440.835L413.331 443.094L411.072 443.647Z" fill="#455A64"/>
<path d="M322.198 123.876C323.044 123.876 323.046 125.191 322.198 125.191C321.351 125.191 321.35 123.876 322.198 123.876Z" fill="#455A64"/>
<path d="M395.932 416.524C396.531 416.524 396.532 417.454 395.932 417.454C395.333 417.454 395.332 416.524 395.932 416.524Z" fill="#455A64"/>
<path d="M68.3105 271.268L70.5796 271.688L71.0865 274.079L71.5936 271.688L73.8625 271.267L71.6035 270.715L71.0865 268.457L70.5695 270.715L68.3105 271.268Z" fill="#455A64"/>
<path d="M42.0845 319.949C42.9305 319.949 42.9325 321.264 42.0845 321.264C41.2385 321.264 41.2365 319.949 42.0845 319.949Z" fill="#455A64"/>
<path d="M204.559 216.211C205.405 216.211 205.407 217.526 204.559 217.526C203.713 217.526 203.711 216.211 204.559 216.211Z" fill="#455A64"/>
<path d="M156.338 143.417C156.937 143.417 156.938 144.348 156.338 144.348C155.739 144.347 155.738 143.417 156.338 143.417Z" fill="#455A64"/>
<path d="M80.441 61.688C82.064 61.688 82.066 64.21 80.441 64.21C78.818 64.21 78.815 61.688 80.441 61.688Z" fill="#455A64"/>
<path d="M379.334 89.838C380.957 89.838 380.959 92.36 379.334 92.36C377.711 92.36 377.708 89.838 379.334 89.838Z" fill="#455A64"/>
<path d="M367.651 440.835C361.964 440.835 356.189 440.082 350.443 438.552C336.21 434.761 325.285 426.223 318.848 413.859C311.316 399.392 311.446 383.066 314.752 374.019L317.57 375.048C314.382 383.766 314.713 399.42 321.509 412.473C327.546 424.07 337.818 432.085 351.214 435.654C370.443 440.774 390.021 436.774 404.936 424.679C421.499 411.247 429.887 389.86 428.557 364.454C427.229 339.069 415.514 308.379 403.112 275.886C391.148 244.539 378.776 212.126 376.191 184.155C373.503 155.081 381.477 129.147 399.253 109.155C421.041 84.6511 456.807 70.5621 499.963 69.4821L500.037 72.4811C457.721 73.5401 422.724 87.2721 401.495 111.148C384.285 130.503 376.568 155.652 379.178 183.878C381.726 211.439 394.024 243.658 405.916 274.816C418.404 307.536 430.2 338.44 431.554 364.297C432.935 390.685 424.154 412.956 406.826 427.008C395.623 436.095 381.921 440.835 367.651 440.835Z" fill="#C7C7C7"/>
<path d="M288.006 355.551C287.699 356.266 305.941 394.396 307.38 395.928C307.432 395.989 307.512 396.052 307.612 396.124C309.772 397.825 324.199 403.492 325.362 403.878C328.23 404.83 356.998 360.513 359.2 352.665C359.752 350.696 347.933 327.305 343.913 324.079C342.192 322.699 335.657 320.514 334.834 320.777C334.834 320.777 334.834 320.777 334.827 320.783C333.658 321.225 288.32 354.83 288.006 355.551Z" fill="#2940D3"/>
<path opacity="0.1" d="M288.006 355.551C287.699 356.266 305.941 394.396 307.38 395.928C307.432 395.989 307.512 396.052 307.612 396.124C309.772 397.825 324.199 403.492 325.362 403.878C328.23 404.83 356.998 360.513 359.2 352.665C359.752 350.696 347.933 327.305 343.913 324.079C342.192 322.699 335.657 320.514 334.834 320.777C334.834 320.777 334.834 320.777 334.827 320.783C333.658 321.225 288.32 354.83 288.006 355.551Z" fill="black"/>
<path opacity="0.1" d="M288.006 355.551C287.699 356.266 305.941 394.396 307.38 395.928C307.432 395.989 307.512 396.052 307.612 396.124C315.035 387.885 349.853 349.184 349.881 348.565C349.908 347.96 338.013 325.894 334.827 320.783C333.658 321.225 288.32 354.83 288.006 355.551Z" fill="black"/>
<path d="M184.309 324.455C184.309 324.455 148.895 329.361 148.871 329.365C142.103 330.339 136.153 331.072 133.04 331.164C133.024 331.167 133.007 331.17 132.989 331.165C131.814 331.201 131.053 331.145 130.827 330.966C130.808 330.953 130.79 330.947 130.779 330.932C129.125 329.114 119.765 275.259 120.072 273.271C120.369 271.276 126.068 271.998 128.099 273.798C130.133 275.615 142.936 294.623 142.936 294.623L178.381 290.055L184.309 324.455Z" fill="#455A64"/>
<path d="M125.62 331.978L125.09 329.205C125.388 329.129 125.679 329.002 125.948 328.816C127.198 327.953 127.514 326.23 126.65 324.98C126.05 324.111 125.04 323.691 124.054 323.8L123.57 321.281C123.879 321.207 124.182 321.071 124.457 320.881C125.714 320.013 126.027 318.301 125.159 317.045C124.555 316.17 123.528 315.752 122.538 315.882L122.05 313.357C122.369 313.284 122.683 313.151 122.971 312.952C124.228 312.084 124.537 310.366 123.674 309.116C123.057 308.222 122.024 307.809 121.019 307.958L120.535 305.439C120.867 305.358 121.187 305.22 121.487 305.013C122.737 304.15 123.057 302.433 122.189 301.177C121.572 300.283 120.507 299.864 119.5 300.024L119.016 297.505C119.363 297.432 119.693 297.296 120 297.084C121.25 296.221 121.566 294.498 120.702 293.248C120.072 292.335 118.994 291.925 117.975 292.093L117.496 289.58C117.857 289.515 118.201 289.37 118.513 289.155C119.77 288.287 120.079 286.569 119.216 285.319C118.581 284.4 117.494 283.988 116.462 284.165L115.978 281.646C116.35 281.583 116.704 281.44 117.029 281.216C118.28 280.353 118.599 278.636 117.732 277.38C117.093 276.455 115.984 276.039 114.942 276.241L114.486 273.869L120.067 273.275L130.822 330.974L125.62 331.978Z" fill="#37474F"/>
<path d="M142.513 328.746C142.331 325.32 140.395 322.136 138.187 320.467C136.065 318.863 133.175 317.592 130.2 317.975C130.115 317.986 130.127 318.144 130.217 318.149C135.926 318.44 141.356 323.097 142.333 328.764C142.353 328.877 142.52 328.863 142.513 328.746Z" fill="#37474F"/>
<path d="M149.286 327.031C149.046 323.088 148.479 319.172 147.877 315.27C147.282 311.409 146.665 307.553 146.022 303.699C145.654 301.494 145.28 299.281 144.794 297.099C144.762 296.954 144.554 296.992 144.565 297.137C144.863 301.071 145.456 304.988 145.98 308.897C146.499 312.769 147.048 316.638 147.67 320.495C148.027 322.709 148.436 324.903 148.956 327.085C149.006 327.295 149.298 327.24 149.286 327.031Z" fill="#37474F"/>
<path d="M152.276 326.176C152.036 322.233 151.469 318.317 150.867 314.415C150.272 310.554 149.654 306.698 149.012 302.844C148.644 300.639 148.27 298.426 147.784 296.244C147.752 296.099 147.544 296.137 147.555 296.283C147.853 300.216 148.446 304.134 148.97 308.043C149.489 311.916 150.038 315.784 150.66 319.641C151.017 321.855 151.426 324.049 151.946 326.231C151.997 326.44 152.289 326.385 152.276 326.176Z" fill="#37474F"/>
<path d="M159.434 327.901L155.426 293.015C155.426 293.015 158.885 289.324 165.569 288.167C180.337 285.609 207.383 284.698 223.13 287.465C236.417 289.8 278.616 329.397 285.262 334.646C287.686 336.56 293.33 333.119 293.33 333.119L312.55 372.444C312.55 372.444 297.385 382.599 282.376 373.785C263.904 362.939 225.962 324.718 218.458 323.171C211.679 321.773 182.654 328.521 168.014 330.31C162.897 330.935 159.434 327.901 159.434 327.901Z" fill="#2940D3"/>
<path d="M164.538 324.827C164.453 320.878 164.04 316.942 163.592 313.02C163.149 309.139 162.684 305.261 162.193 301.386C161.912 299.168 161.625 296.942 161.225 294.743C161.198 294.597 160.989 294.627 160.994 294.772C161.137 298.714 161.576 302.652 161.946 306.578C162.313 310.468 162.709 314.355 163.179 318.234C163.449 320.461 163.771 322.668 164.205 324.87C164.248 325.08 164.542 325.036 164.538 324.827Z" fill="#263238"/>
<path opacity="0.1" d="M223.979 301.737C223.063 302.128 222.363 302.881 221.716 303.627C221.112 304.408 220.557 305.244 220.135 306.131C219.268 307.9 218.679 309.784 218.316 311.687C218.132 312.639 218.015 313.599 217.911 314.558C217.856 315.52 217.781 316.481 217.8 317.442C217.824 318.403 217.869 319.363 217.966 320.318C218.1 321.274 218.226 322.226 218.458 323.171C218.734 322.229 218.906 321.294 219.085 320.363C219.245 319.432 219.454 318.51 219.588 317.587C219.742 316.665 219.922 315.754 220.056 314.838L220.309 313.477C220.393 313.025 220.446 312.564 220.555 312.12C220.897 310.315 221.297 308.54 221.797 306.79C222.322 305.051 222.865 303.304 223.979 301.737Z" fill="black"/>
<path d="M237.716 301.703C240.266 297.284 237.286 290.789 231.059 287.196C224.833 283.603 217.718 284.272 215.168 288.691C212.618 293.11 215.598 299.605 221.825 303.198C228.051 306.791 235.166 306.122 237.716 301.703Z" fill="#2940D3"/>
<path opacity="0.1" d="M237.716 301.703C240.266 297.284 237.286 290.789 231.059 287.196C224.833 283.603 217.718 284.272 215.168 288.691C212.618 293.11 215.598 299.605 221.825 303.198C228.051 306.791 235.166 306.122 237.716 301.703Z" fill="black"/>
<path opacity="0.1" d="M312.552 372.44C312.552 372.44 297.387 382.6 282.38 373.789C263.908 362.937 225.966 324.716 218.457 323.174C211.679 321.773 182.657 328.525 168.012 330.31C162.904 330.933 159.441 327.899 159.441 327.899L155.764 295.899L302.575 352.022L312.552 372.44Z" fill="black"/>
<path d="M237.319 368.609C237.319 368.609 244.958 403.535 244.964 403.559C246.46 410.231 247.652 416.106 247.986 419.203C247.99 419.219 247.994 419.235 247.991 419.254C248.118 420.422 248.121 421.185 247.961 421.425C247.949 421.445 247.945 421.463 247.931 421.476C246.247 423.266 193.28 436.776 191.275 436.624C189.263 436.483 189.541 430.745 191.178 428.58C192.831 426.411 210.789 412.172 210.789 412.172L203.485 377.188L237.319 368.609Z" fill="#455A64"/>
<path d="M249.372 426.537L246.648 427.28C246.549 426.989 246.399 426.709 246.194 426.455C245.236 425.275 243.494 425.094 242.315 426.052C241.495 426.718 241.155 427.757 241.34 428.732L238.866 429.409C238.768 429.107 238.609 428.815 238.398 428.556C237.436 427.37 235.704 427.191 234.519 428.153C233.693 428.823 233.357 429.88 233.563 430.857L231.083 431.539C230.986 431.226 230.828 430.924 230.608 430.652C229.645 429.466 227.908 429.291 226.729 430.249C225.886 430.934 225.554 431.996 225.781 432.986L223.307 433.663C223.2 433.339 223.038 433.03 222.808 432.747C221.85 431.567 220.114 431.382 218.929 432.344C218.085 433.029 217.75 434.123 217.988 435.114L215.514 435.792C215.414 435.452 215.253 435.133 215.018 434.844C214.06 433.664 212.318 433.483 211.139 434.441C210.278 435.14 209.952 436.246 210.199 437.249L207.731 437.922C207.638 437.567 207.468 437.236 207.228 436.941C206.265 435.755 204.528 435.58 203.349 436.538C202.482 437.242 202.155 438.358 202.412 439.373L199.938 440.051C199.846 439.685 199.677 439.343 199.428 439.037C198.47 437.857 196.734 437.672 195.549 438.634C194.676 439.343 194.347 440.481 194.63 441.504L192.301 442.142L191.275 436.624L247.965 421.425L249.372 426.537Z" fill="#37474F"/>
<path d="M244.84 409.946C241.438 410.394 238.415 412.57 236.921 414.901C235.487 417.141 234.444 420.121 235.056 423.057C235.073 423.141 235.23 423.117 235.228 423.027C235.076 417.312 239.297 411.537 244.871 410.124C244.984 410.096 244.957 409.931 244.84 409.946Z" fill="#37474F"/>
<path d="M242.605 403.327C238.693 403.872 234.832 404.741 230.989 405.644C227.186 406.537 223.389 407.451 219.597 408.391C217.427 408.929 215.25 409.473 213.112 410.127C212.97 410.17 213.024 410.375 213.168 410.352C217.066 409.75 220.926 408.855 224.782 408.029C228.603 407.211 232.417 406.364 236.214 405.444C238.394 404.916 240.549 404.339 242.685 403.65C242.889 403.585 242.812 403.298 242.605 403.327Z" fill="#37474F"/>
<path d="M241.519 400.411C237.607 400.956 233.746 401.826 229.903 402.728C226.1 403.621 222.303 404.536 218.511 405.475C216.341 406.013 214.164 406.557 212.026 407.211C211.884 407.254 211.938 407.459 212.082 407.436C215.98 406.834 219.84 405.939 223.696 405.113C227.517 404.295 231.331 403.448 235.128 402.528C237.308 402 239.463 401.423 241.599 400.734C241.803 400.67 241.726 400.382 241.519 400.411Z" fill="#37474F"/>
<path d="M295.373 337.318C295.373 337.318 280.382 341.389 279.255 341.7C278.649 341.867 278.191 346.595 278.191 346.595C278.191 346.595 236.265 323.327 219.098 322.906C213.218 322.762 199.697 332.436 198.944 341.726C197.724 356.792 199.317 377.886 202.165 390.249C203.436 395.767 207.227 400.556 207.227 400.556L243.05 393.888C243.05 393.888 243.687 386.54 242.968 382.477C241.881 376.333 237.83 362.389 237.83 362.389C249.333 364.324 280.507 379.861 280.507 379.861C280.507 379.861 297.334 392.978 315.417 377.769L295.373 337.318Z" fill="#2940D3"/>
<path d="M279.372 340.518C279.069 344.089 278.318 347.685 277.468 351.167C277.435 351.304 277.253 351.28 277.275 351.137C277.813 347.584 278.285 343.985 278.995 340.46C279.05 340.181 279.395 340.244 279.372 340.518Z" fill="#263238"/>
<path d="M295.39 335.403C295.472 335.384 295.524 335.535 295.437 335.563C292.683 336.441 290.306 337.428 287.792 338.527C286.625 339.037 280.265 342.266 281.248 344.423C281.413 344.784 281.797 344.87 282.332 344.76C282.976 344.628 283.688 344.112 284.287 343.792C285.611 343.084 286.951 342.425 288.317 341.837C290.866 340.739 293.466 339.876 296.138 339.381C296.226 339.365 296.249 339.505 296.163 339.533C292.559 340.707 288.986 341.988 285.548 343.758C283.896 344.608 281.524 346.418 280.824 344.499C280.111 342.543 284.149 339.808 285.277 339.172C288.429 337.396 291.987 336.203 295.39 335.403Z" fill="#263238"/>
<path d="M281.064 344.166C280.575 344.598 280.052 344.988 279.52 345.347C279.107 345.626 278.669 345.966 278.195 346.061C278.103 346.079 278.066 345.951 278.115 345.878C278.422 345.424 278.909 345.116 279.318 344.785C279.791 344.401 280.259 344.006 280.741 343.637C281.061 343.393 281.366 343.9 281.064 344.166Z" fill="#263238"/>
<path d="M209.759 394.52C213.617 394.054 217.428 393.261 221.223 392.436C224.978 391.62 228.727 390.781 232.471 389.918C234.614 389.424 236.764 388.923 238.877 388.312C239.017 388.271 238.967 388.066 238.825 388.086C234.98 388.61 231.169 389.428 227.363 390.176C223.592 390.917 219.827 391.688 216.077 392.531C213.924 393.015 211.796 393.549 209.685 394.194C209.483 394.256 209.555 394.545 209.759 394.52Z" fill="#263238"/>
<path opacity="0.1" d="M218.61 337.324C218.378 338.695 218.81 340.099 219.246 341.388C219.474 342.044 219.77 342.66 220.042 343.298C220.344 343.911 220.667 344.52 221.001 345.117C222.335 347.516 224 349.67 225.735 351.743C227.502 353.787 229.384 355.721 231.408 357.493C233.408 359.29 235.541 360.936 237.83 362.389C236.278 360.145 234.556 358.109 232.851 356.07C231.144 354.034 229.417 352.038 227.698 350.046C226.005 348.038 224.281 346.056 222.677 343.995C221.89 342.956 221.089 341.921 220.381 340.826C219.658 339.737 218.955 338.628 218.61 337.324Z" fill="black"/>
<path d="M226.13 325.98C223.895 321.394 216.844 320.229 210.381 323.378C203.918 326.528 200.491 332.799 202.727 337.386C204.962 341.972 212.013 343.137 218.476 339.988C224.938 336.838 228.365 330.566 226.13 325.98Z" fill="#2940D3"/>
<path opacity="0.1" d="M226.13 325.98C223.895 321.394 216.844 320.229 210.381 323.378C203.918 326.528 200.491 332.799 202.727 337.386C204.962 341.972 212.013 343.137 218.476 339.988C224.938 336.838 228.365 330.566 226.13 325.98Z" fill="black"/>
<path d="M332.212 334.309C319.345 315.964 312.237 300.518 312.591 293.67C312.901 287.673 315.987 270.039 321.601 260.477C323.291 257.598 341.145 264.577 340.702 268.118C340.252 271.724 334.954 290.137 334.455 294.757C334.173 297.373 339.447 323.974 340.762 329.993C342.957 340.044 337.923 342.451 332.212 334.309Z" fill="#F7A9A0"/>
<path d="M329.322 247.536C328.365 248.539 327.832 248.043 328.068 245.591C328.301 243.109 331.317 233.629 327.912 232.858C324.496 232.078 320.447 245.564 320.368 249.679C320.279 253.795 321.602 260.478 321.602 260.478C322.917 258.012 326.679 252.338 329.322 247.536Z" fill="#A6A6A6"/>
<path d="M340.702 268.118C344.154 261.04 348.883 252.439 348.189 243.581C348.053 241.843 347.104 240.912 347.104 240.912C346.863 236.936 344.914 235.856 344.914 235.856C343.556 232.221 341.41 231.391 341.41 231.391C341.41 231.391 341.077 226.727 338.224 226.46C335.026 226.151 336.12 232.763 334.498 236.766C330.782 245.939 322.935 257.937 321.6 260.476L340.702 268.118Z" fill="#A6A6A6"/>
<path d="M337.359 249.116C338.399 246.395 339.491 243.749 340.157 240.901C340.887 237.776 341.066 234.647 341.328 231.466C341.336 231.367 341.475 231.368 341.482 231.467C341.92 237.301 340.289 244.046 337.482 249.165C337.415 249.289 337.307 249.253 337.359 249.116Z" fill="#263238"/>
<path d="M342.57 252.163C343.435 249.459 344.924 244.697 344.819 235.857C344.819 235.828 344.868 235.818 344.872 235.85C345.704 241.58 344.899 246.901 342.699 252.204C342.63 252.369 342.513 252.343 342.57 252.163Z" fill="#263238"/>
<path d="M345.401 253.749C346.697 249.095 346.924 245.997 347.083 240.932C347.084 240.903 347.134 240.897 347.136 240.929C347.56 246.704 347.059 248.847 345.554 253.816C345.503 253.986 345.351 253.93 345.401 253.749Z" fill="#263238"/>
<path d="M340.701 268.118L321.6 260.477C321.6 260.477 318.587 261.805 316.622 265.126C314.656 268.448 310.928 291.574 312.374 298.115C313.82 304.656 326.279 328.602 333.056 336.633C339.833 344.663 342.674 338.827 341.546 332.038C340.417 325.249 335.386 296.893 335.406 295.194C335.426 293.495 340.641 278.24 341.433 275.087C342.225 271.934 340.701 268.118 340.701 268.118Z" fill="#2940D3"/>
<path opacity="0.1" d="M333.054 336.633C327.916 330.547 319.506 315.291 315.105 305.425L338.276 313.095C339.608 320.832 341.016 328.832 341.549 332.038C342.677 338.83 339.838 344.661 333.054 336.633Z" fill="black"/>
<path opacity="0.1" d="M339.824 272.908C337.19 271.701 334.487 270.631 331.783 269.578C329.108 268.536 326.43 267.504 323.748 266.484C322.213 265.9 320.671 265.315 319.119 264.785C319.016 264.75 318.985 264.843 319.083 264.887C321.726 266.068 324.438 267.129 327.125 268.215C329.787 269.29 332.455 270.352 335.134 271.382C336.672 271.973 338.211 272.538 339.772 273.055C339.921 273.104 339.963 272.972 339.824 272.908Z" fill="black"/>
<path d="M292.031 335.056L315.533 377.027C315.533 377.027 318.825 378.017 322.662 375.743C331.384 370.575 345.791 358.104 351.186 346.854C355.072 338.751 351.966 332.294 345.986 329.774C344.473 329.136 324.766 322.869 317.701 323.517C310.228 324.202 300.931 327.697 295.817 330.888C293.301 332.457 292.031 335.056 292.031 335.056Z" fill="#2940D3"/>
<path d="M289.496 335.353C289.41 334.736 292.833 332.941 293.329 333.119C293.824 333.297 317.994 376.9 318.048 377.217C318.102 377.533 313.895 379.58 313.594 379.198C313.292 378.815 289.611 336.177 289.496 335.353Z" fill="#2940D3"/>
<path opacity="0.1" d="M289.496 335.353C289.41 334.736 292.833 332.941 293.329 333.119C293.824 333.297 317.994 376.9 318.048 377.217C318.102 377.533 313.895 379.58 313.594 379.198C313.292 378.815 289.611 336.177 289.496 335.353Z" fill="black"/>
<path d="M317.299 344.156L313.176 323.129L331.761 322.921L335.884 343.947L317.299 344.156Z" fill="#2940D3"/>
<path opacity="0.2" d="M317.299 344.156L313.176 323.129L331.761 322.921L335.884 343.947L317.299 344.156Z" fill="black"/>
<path opacity="0.1" d="M317.299 344.156L316.777 341.493L335.362 341.284L335.884 343.947L317.299 344.156Z" fill="black"/>
<path opacity="0.1" d="M328.129 326.575C327.466 326.583 326.835 326.107 326.718 325.512C326.602 324.918 327.044 324.43 327.706 324.422C328.369 324.415 329 324.891 329.117 325.485C329.234 326.08 328.792 326.568 328.129 326.575Z" fill="black"/>
<path opacity="0.1" d="M324.195 326.62C323.532 326.627 322.901 326.151 322.784 325.557C322.667 324.962 323.11 324.475 323.772 324.467C324.434 324.459 325.066 324.935 325.183 325.53C325.3 326.124 324.858 326.612 324.195 326.62Z" fill="black"/>
<path opacity="0.1" d="M320.264 326.664C319.602 326.671 318.97 326.196 318.853 325.601C318.736 325.006 319.179 324.519 319.841 324.511C320.504 324.504 321.135 324.98 321.252 325.574C321.369 326.168 320.926 326.656 320.264 326.664Z" fill="black"/>
<path opacity="0.1" d="M328.785 329.925C328.122 329.933 327.491 329.457 327.374 328.862C327.257 328.268 327.7 327.78 328.362 327.772C329.025 327.765 329.656 328.24 329.773 328.835C329.89 329.429 329.447 329.917 328.785 329.925Z" fill="black"/>
<path opacity="0.1" d="M324.853 329.969C324.191 329.976 323.559 329.501 323.443 328.906C323.326 328.311 323.769 327.823 324.431 327.816C325.094 327.809 325.725 328.285 325.842 328.879C325.958 329.473 325.516 329.961 324.853 329.969Z" fill="black"/>
<path opacity="0.1" d="M320.919 330.013C320.257 330.021 319.625 329.545 319.509 328.95C319.392 328.355 319.835 327.868 320.497 327.86C321.159 327.853 321.791 328.329 321.907 328.923C322.024 329.518 321.582 330.006 320.919 330.013Z" fill="black"/>
<path opacity="0.1" d="M329.441 333.274C328.779 333.281 328.147 332.805 328.03 332.211C327.913 331.617 328.356 331.129 329.018 331.121C329.681 331.114 330.312 331.59 330.429 332.184C330.546 332.779 330.103 333.267 329.441 333.274Z" fill="black"/>
<path opacity="0.1" d="M325.509 333.318C324.847 333.325 324.215 332.85 324.099 332.255C323.982 331.661 324.425 331.173 325.087 331.165C325.749 331.158 326.381 331.634 326.497 332.228C326.614 332.823 326.171 333.311 325.509 333.318Z" fill="black"/>
<path opacity="0.1" d="M321.576 333.362C320.914 333.37 320.282 332.893 320.165 332.299C320.048 331.704 320.491 331.216 321.153 331.209C321.815 331.201 322.447 331.677 322.564 332.272C322.681 332.867 322.238 333.355 321.576 333.362Z" fill="black"/>
<path d="M338.046 334.025C339.241 336.936 346.105 338.483 350.396 337.962C350.69 337.925 352.685 336.005 355.22 333.787C356.764 332.447 358.514 330.991 360.207 329.778C360.556 329.531 350.02 321.007 350.02 321.007C350.02 321.007 347.219 324.594 344.254 326.69C344.004 326.863 343.757 327.002 343.507 327.115C343.472 327.134 343.427 327.153 343.381 327.182C341.907 327.913 336.893 331.211 338.046 334.025Z" fill="#F7A9A0"/>
<path d="M359.695 329.157C356.48 330.715 348.289 333.889 344.101 328.315C343.809 327.927 343.569 327.551 343.381 327.186C343.427 327.149 343.47 327.136 343.507 327.116C343.757 326.999 344.003 326.865 344.253 326.695C347.222 324.594 350.021 321.005 350.021 321.005C350.021 321.005 357.623 327.154 359.695 329.157Z" fill="#263238"/>
<path d="M372.311 324.25C368.801 327.586 355.74 331.384 351.598 329.772C345.593 327.435 341.726 320.627 345.217 314.773C348.6 309.098 365.71 304.45 369.78 306.528C375.776 309.589 377.496 319.322 372.311 324.25Z" fill="#F7A9A0"/>
<path d="M358.408 316.32C358.444 316.315 358.391 316.404 358.354 316.416C357.462 316.704 356.49 317.184 356.483 318.087C356.483 318.115 356.438 318.128 356.431 318.097C356.219 317.074 357.517 316.45 358.408 316.32Z" fill="#263238"/>
<path d="M359.61 316.778C360.226 318.157 357.421 319.288 356.851 318.01C356.289 316.752 359.094 315.621 359.61 316.778Z" fill="#263238"/>
<path d="M356.563 311.544C356.593 311.524 356.495 311.492 356.459 311.508C355.6 311.883 354.553 312.168 353.95 311.496C353.932 311.475 353.889 311.495 353.904 311.523C354.424 312.429 355.81 312.037 356.563 311.544Z" fill="#263238"/>
<path d="M357.161 310.405C356.709 308.964 353.859 309.975 354.278 311.31C354.69 312.624 357.54 311.613 357.161 310.405Z" fill="#263238"/>
<path d="M361.442 317.363C361.407 316.94 361.445 316.544 361.453 316.121C361.462 315.645 361.421 315.264 361.706 314.857C361.859 314.639 362.245 314.575 362.472 314.704C362.999 315.003 363.132 315.589 363.144 316.163C363.157 316.786 363.008 317.269 362.626 317.759C362.254 318.235 361.488 317.921 361.442 317.363Z" fill="#263238"/>
<path d="M358.008 308.75C358.228 309.113 358.492 309.412 358.746 309.748C359.034 310.128 359.223 310.46 359.693 310.622C359.945 310.709 360.295 310.533 360.403 310.296C360.654 309.745 360.417 309.192 360.089 308.721C359.734 308.21 359.329 307.906 358.731 307.734C358.153 307.567 357.718 308.271 358.008 308.75Z" fill="#263238"/>
<path d="M351.603 319.413C351.604 318.136 350.901 316.773 350.434 315.919C350.409 315.813 350.571 315.643 350.659 315.589L350.665 315.587C350.697 315.575 352.527 314.915 352.527 314.915C352.31 314.721 351.267 313.706 351.621 313.589C354.554 312.628 357.815 311.559 360.937 311.221C361.039 311.205 361.075 311.358 360.977 311.387C358.195 312.422 355.249 312.962 352.438 313.958C352.743 314.293 353.274 314.825 353.404 315.175C353.414 315.28 351.396 315.785 351.112 315.934C351.112 315.934 352.333 317.483 351.987 319.278C351.898 319.742 351.603 320.022 351.603 319.413Z" fill="#263238"/>
<path d="M349.571 318.394C349.548 317.827 351.231 316.278 351.688 317.077C352.145 317.876 352.374 320.051 351.389 321.263C350.526 322.325 350.369 319.514 350.044 319.176C349.773 318.894 349.588 318.802 349.571 318.394Z" fill="#263238"/>
<path d="M350.041 319.174C349.978 319.11 349.925 319.065 349.883 319.014C350.514 318.735 351.46 318.914 351.954 320.072C351.848 320.51 351.672 320.927 351.394 321.264C350.527 322.319 350.366 319.512 350.041 319.174Z" fill="#FF9ABB"/>
<path d="M350.375 322.891C350.092 322.763 349.733 322.664 349.585 322.361C349.443 322.07 349.441 321.664 349.441 321.347C349.441 321.316 349.401 321.299 349.382 321.327C349.138 321.681 349.114 322.234 349.34 322.607C349.561 322.972 349.974 323.034 350.369 322.99C350.424 322.983 350.417 322.91 350.375 322.891Z" fill="#263238"/>
<path d="M362.242 328.486C360.698 325.497 363.68 322.304 366.948 321.752C366.948 321.752 362.33 314.025 368.74 310.797C368.74 310.797 364.695 310.05 362.996 306.375L360.671 306.87C360.552 305.925 362.556 304 365.316 305.25C365.316 305.25 368.657 303.979 371.667 305.548C374.677 307.117 374.418 310.078 374.418 310.078C374.418 310.078 376.851 311.309 377.765 314.495C378.679 317.681 376.461 320.11 376.461 320.11C376.461 320.11 377.434 324.505 374.848 326.438C372.262 328.372 369.686 327.714 369.686 327.714C369.686 327.714 368.992 329.221 366.308 329.764C364.583 330.114 362.705 329.383 362.242 328.486Z" fill="#263238"/>
<path d="M369.402 310.727C368.842 310.904 368.294 311.115 367.787 311.401C367.268 311.661 366.794 311.997 366.361 312.368C365.509 313.127 364.921 314.158 364.817 315.283C364.631 316.412 365.012 317.543 365.36 318.631C365.605 319.155 365.814 319.701 366.09 320.215C366.374 320.725 366.67 321.23 366.947 321.752C366.594 321.283 366.261 320.797 365.915 320.316C365.6 319.817 365.352 319.275 365.066 318.753C364.644 317.652 364.243 316.47 364.407 315.236C364.551 314.018 365.207 312.874 366.157 312.127C367.108 311.382 368.242 310.916 369.402 310.727Z" fill="#263238"/>
<path d="M376.462 320.11C376.897 321.143 377.122 322.272 377.108 323.413C377.099 324.551 376.74 325.728 375.965 326.622C375.561 327.052 375.093 327.4 374.59 327.674C374.094 327.964 373.544 328.171 372.978 328.276C371.849 328.497 370.641 328.309 369.688 327.714C370.715 328.151 371.864 328.234 372.91 327.965C373.943 327.695 374.951 327.132 375.655 326.347C376.013 325.954 376.281 325.487 376.471 324.985C376.642 324.476 376.753 323.943 376.792 323.398C376.871 322.308 376.734 321.193 376.462 320.11Z" fill="#263238"/>
<path d="M374.417 310.078C374.358 309.175 374.176 308.287 373.845 307.469C373.513 306.654 373.011 305.915 372.335 305.377C371.66 304.838 370.825 304.525 369.957 304.377C369.085 304.238 368.18 304.246 367.283 304.37C368.146 304.078 369.075 303.984 369.998 304.062C370.921 304.141 371.844 304.467 372.593 305.055C373.33 305.652 373.866 306.476 374.142 307.361C374.427 308.243 374.528 309.175 374.417 310.078Z" fill="#263238"/>
<path d="M363.779 308.14C364.504 308.909 365.291 309.58 366.189 310.049C366.631 310.297 367.112 310.456 367.603 310.577C368.098 310.711 368.612 310.708 369.145 310.729C368.64 310.878 368.093 310.965 367.552 310.89C367.011 310.837 366.477 310.672 365.997 310.414C365.518 310.155 365.076 309.831 364.705 309.441C364.332 309.054 364.002 308.625 363.779 308.14Z" fill="#263238"/>
<path d="M360.795 326.213C360.795 326.213 366.002 327.088 365.87 329.324C365.738 331.561 359.097 332.198 357.333 330.485C355.569 328.772 357.123 327.107 357.123 327.107L360.795 326.213Z" fill="#F7A9A0"/>
<path d="M363.961 329.46C363.98 329.492 363.936 329.521 363.911 329.497C362.626 328.319 360.907 328.193 359.248 328.322C359.995 328.499 360.571 328.95 360.399 329.919C360.39 329.97 360.313 329.962 360.302 329.916C360.146 329.257 359.837 328.875 359.166 328.699C358.691 328.574 358.169 328.583 357.681 328.564C357.518 328.558 357.475 328.289 357.65 328.267C357.663 328.266 357.677 328.264 357.69 328.263C359.532 327.342 362.824 327.551 363.961 329.46Z" fill="#263238"/>
<g opacity="0.2">
<path d="M355.987 321.352C355.897 321.4 355.862 321.512 355.91 321.602C355.958 321.692 356.07 321.727 356.16 321.679C356.25 321.631 356.285 321.519 356.237 321.429C356.19 321.338 356.077 321.304 355.987 321.352Z" fill="black"/>
<path d="M354.337 317.835C354.247 317.883 354.212 317.995 354.26 318.085C354.308 318.175 354.42 318.21 354.51 318.162C354.6 318.114 354.635 318.002 354.587 317.912C354.539 317.822 354.427 317.788 354.337 317.835Z" fill="black"/>
<path d="M353.77 319.68C353.68 319.728 353.645 319.84 353.693 319.93C353.741 320.02 353.853 320.055 353.943 320.007C354.033 319.959 354.068 319.847 354.02 319.757C353.972 319.667 353.86 319.632 353.77 319.68Z" fill="black"/>
<path d="M357.292 320.544C357.202 320.592 357.167 320.704 357.215 320.794C357.263 320.884 357.375 320.919 357.465 320.871C357.555 320.823 357.59 320.711 357.542 320.621C357.495 320.531 357.383 320.496 357.292 320.544Z" fill="black"/>
<path d="M355.515 319.412C355.425 319.46 355.39 319.572 355.438 319.662C355.486 319.753 355.598 319.787 355.688 319.739C355.779 319.691 355.813 319.579 355.765 319.489C355.718 319.399 355.606 319.365 355.515 319.412Z" fill="black"/>
<path d="M353.433 309.72C353.343 309.768 353.308 309.88 353.356 309.97C353.404 310.06 353.516 310.095 353.606 310.047C353.696 309.999 353.731 309.887 353.683 309.797C353.635 309.707 353.523 309.672 353.433 309.72Z" fill="black"/>
<path d="M353.175 311.491C353.085 311.539 353.05 311.651 353.098 311.741C353.146 311.831 353.258 311.866 353.348 311.818C353.438 311.77 353.473 311.658 353.425 311.568C353.378 311.478 353.266 311.443 353.175 311.491Z" fill="black"/>
<path d="M351.923 311.734C351.833 311.782 351.798 311.894 351.846 311.984C351.894 312.074 352.006 312.109 352.096 312.061C352.186 312.013 352.221 311.901 352.173 311.811C352.125 311.721 352.013 311.687 351.923 311.734Z" fill="black"/>
<path d="M352.085 310.223C351.995 310.271 351.96 310.383 352.008 310.473C352.056 310.563 352.168 310.598 352.258 310.55C352.348 310.502 352.383 310.39 352.335 310.3C352.288 310.209 352.176 310.175 352.085 310.223Z" fill="black"/>
</g>
<path d="M350.306 339.052C350.306 339.052 355.224 335.824 355.067 335.147C354.91 334.469 348.802 333.893 346.717 331.88C344.632 329.867 343.859 326.915 343.617 326.54C343.375 326.165 339.201 329.436 338.371 330.345C337.394 331.415 336.698 332.902 337.869 334.62C340.037 337.797 347.679 339.818 350.306 339.052Z" fill="#2940D3"/>
<path d="M353.486 335.341C352.115 336.095 350.886 337.1 349.879 338.297C351.251 337.546 352.478 336.538 353.486 335.341Z" fill="#263238"/>
<path d="M343.436 327.337C342.021 328.004 340.731 328.93 339.652 330.063C341.068 329.398 342.355 328.468 343.436 327.337Z" fill="#263238"/>
<path d="M343.355 329.116C341.522 330.084 339.824 331.305 338.326 332.739C340.161 331.772 341.856 330.548 343.355 329.116Z" fill="#263238"/>
<path d="M344.412 331.027C342.579 331.995 340.881 333.216 339.383 334.65C341.218 333.683 342.913 332.459 344.412 331.027Z" fill="#263238"/>
<path d="M346.377 332.717C344.544 333.685 342.846 334.906 341.348 336.34C343.183 335.373 344.878 334.149 346.377 332.717Z" fill="#263238"/>
<path d="M348.443 333.925C346.693 334.833 345.077 335.995 343.662 337.369C345.414 336.463 347.028 335.297 348.443 333.925Z" fill="#263238"/>
<path d="M350.908 334.796C349.371 335.636 347.974 336.727 346.791 338.019C348.329 337.18 349.723 336.086 350.908 334.796Z" fill="#263238"/>
<path d="M349.695 343.733C348.654 344.137 347.478 344.283 346.181 344.067C342.363 343.424 337.887 339.414 336.521 334.206C335.652 330.88 336.158 328.42 337.398 326.784C338.761 334.049 343.68 340.488 349.695 343.733Z" fill="#455A64"/>
<path d="M384.261 329.958C388.144 318.006 383.311 301.223 364.861 299.296C352.106 297.963 340.693 306.24 337.433 315.992C332.828 329.791 343.611 344.534 355.498 346.358C364.524 347.747 380.166 342.591 384.261 329.958ZM354.3 338.226C345.649 336.442 337.45 324.402 340.408 313.52C342.486 305.839 350.5 299.563 359.766 300.981C373.155 303.027 378.017 316.235 375.54 325.652C372.928 335.613 360.854 339.583 354.3 338.226Z" fill="#2940D3"/>
<path opacity="0.1" d="M354.301 338.226C345.65 336.442 337.451 324.402 340.409 313.52C342.487 305.839 350.501 299.563 359.767 300.981C373.156 303.027 378.018 316.235 375.541 325.652C372.929 335.613 360.855 339.583 354.301 338.226Z" fill="#455A64"/>
<path opacity="0.1" d="M354.301 338.226C345.65 336.442 337.451 324.402 340.409 313.52C342.487 305.839 350.501 299.563 359.767 300.981C373.156 303.027 378.018 316.235 375.541 325.652C372.929 335.613 360.855 339.583 354.301 338.226Z" fill="#455A64"/>
<g opacity="0.2">
<path d="M374.372 312.131C365.967 308.558 356.852 305.79 347.168 303.999C349.123 302.602 351.393 301.588 353.853 301.111C359.539 302.444 365.008 304.117 370.24 306.079C372.031 307.837 373.401 309.909 374.372 312.131Z" fill="white"/>
<path d="M361.532 337.933C358.886 338.557 356.331 338.647 354.301 338.226C351.738 337.698 349.218 336.27 347.016 334.241C352.053 335.154 356.901 336.395 361.532 337.933Z" fill="white"/>
<path d="M375.599 315.845C366.059 311.594 355.527 308.407 344.246 306.587C344.439 306.372 344.641 306.161 344.846 305.957C355.812 307.787 366.065 310.889 375.388 315.005C375.467 315.285 375.538 315.567 375.599 315.845Z" fill="white"/>
<path d="M369.247 334.473C360.874 331.002 351.674 328.471 341.856 327.126C341.737 326.887 341.629 326.636 341.521 326.384C351.701 327.757 361.224 330.397 369.855 334.027C369.654 334.181 369.45 334.327 369.247 334.473Z" fill="white"/>
<path d="M364.833 336.885C364.522 337.008 364.219 337.129 363.899 337.231C358.036 335.142 351.81 333.517 345.274 332.431C345.051 332.176 344.834 331.919 344.629 331.649C351.748 332.782 358.51 334.562 364.833 336.885Z" fill="white"/>
<path d="M373.721 329.822C363.602 325.204 352.213 321.915 339.918 320.383C339.82 319.539 339.781 318.697 339.803 317.846C352.556 319.441 364.361 322.892 374.818 327.744C374.502 328.474 374.139 329.166 373.721 329.822Z" fill="white"/>
</g>
<path d="M366.171 348.903C369.269 348.922 374.693 346.796 376.195 343.012C377.614 339.435 376.073 334.84 369.731 335.06C365.347 335.212 361.359 338.053 360.167 340.977C358.48 345.115 362.089 348.878 366.171 348.903Z" fill="#2940D3"/>
<path opacity="0.1" d="M366.171 348.903C369.269 348.922 374.693 346.796 376.195 343.012C377.614 339.435 376.073 334.84 369.731 335.06C365.347 335.212 361.359 338.053 360.167 340.977C358.48 345.115 362.089 348.878 366.171 348.903Z" fill="black"/>
<path d="M367.475 349.346C369.855 349.361 374.022 347.728 375.176 344.82C376.267 342.072 375.083 338.542 370.21 338.711C366.842 338.828 363.778 341.01 362.862 343.257C361.566 346.436 364.339 349.327 367.475 349.346Z" fill="#2940D3"/>
<path d="M340.946 354.358C323.097 354.059 298.521 343.565 292.732 339.708C283.918 333.837 287.365 300.282 287.63 293.507C287.743 290.618 313.548 295.582 313.491 298.673C313.442 301.366 309.9 327.163 310.883 327.747C311.701 328.233 329.579 337.745 341.475 344.708C351.726 350.708 345.669 354.438 340.946 354.358Z" fill="#F7A9A0"/>
<path d="M312.874 304.712C312.874 304.712 313.366 300.304 313.391 300.014C313.475 299.024 313.756 297.96 314.666 295.634C316.821 290.13 318.553 275.345 306.355 264.066C301.681 259.744 296.609 261.136 300.666 266.488C303.524 270.257 305.829 272.624 306.417 274.115C306.417 274.115 299.4 272.325 296.201 275.039C294.771 276.252 290.946 279.655 288.346 282.728C288.346 282.728 288.863 283.474 289.653 284.327C289.653 284.327 285.737 287.877 287.631 293.506L287.174 301.018L312.874 304.712Z" fill="#A6A6A6"/>
<path d="M315.884 290.053C314.838 287.137 312.517 280.993 308.87 276.628C304.82 271.779 295.71 263.531 292.162 266.558C289.56 268.777 292.761 272.232 292.761 272.232C292.761 272.232 288.277 269.616 286.365 272.135C284.623 274.431 287.259 276.955 287.259 276.955C287.259 276.955 284.266 275.836 283.014 278.37C281.508 281.418 288.027 283.263 289.169 287.669C289.427 288.659 315.884 290.053 315.884 290.053Z" fill="#A6A6A6"/>
<path d="M304.461 281.763C303.027 279.182 298.267 274.155 292.89 272.208C292.768 272.164 292.669 272.232 292.772 272.296C298.237 275.697 302.65 279.904 304.415 281.801C304.439 281.826 304.477 281.792 304.461 281.763Z" fill="#263238"/>
<path d="M299.448 285.709C297.982 283.609 292.844 278.647 287.328 276.861C287.205 276.821 287.11 276.896 287.216 276.956C293.072 280.274 297.53 283.961 299.405 285.75C299.429 285.774 299.467 285.736 299.448 285.709Z" fill="#263238"/>
<path d="M312.874 304.712L287.174 301.019C287.174 301.019 284.581 302.922 284.319 309.726C284.057 316.53 286.604 335.893 291.347 339.716C296.09 343.539 319.088 352.673 335.367 354.604C351.646 356.535 348.833 347.757 341.352 344.056C333.871 340.355 311.854 327.582 311.582 327.144C311.31 326.706 313.866 315.033 314.073 310.913C314.28 306.793 312.874 304.712 312.874 304.712Z" fill="#2940D3"/>
<path d="M315.211 329.4C316.507 330.333 317.843 331.193 319.186 332.043C320.524 332.9 321.892 333.705 323.26 334.509C324.637 335.298 326.015 336.086 327.424 336.824L329.538 337.928C330.257 338.272 330.963 338.639 331.694 338.964C331.052 338.492 330.384 338.062 329.73 337.609L327.723 336.322C326.384 335.466 325.015 334.66 323.645 333.855C322.266 333.066 320.887 332.277 319.478 331.54C318.074 330.794 316.663 330.061 315.211 329.4Z" fill="#263238"/>
<path d="M327.627 336.563C328.154 336.812 328.696 336.961 329.24 337.1C329.788 337.228 330.33 337.329 330.906 337.403C330.675 337.219 330.41 337.099 330.145 336.99C329.88 336.877 329.605 336.801 329.329 336.731C328.774 336.605 328.21 336.522 327.627 336.563Z" fill="#263238"/>
<path d="M293.848 341.326C295.131 342.11 296.466 342.801 297.796 343.503C299.141 344.173 300.498 344.821 301.866 345.445C304.604 346.69 307.408 347.785 310.234 348.814C313.078 349.794 315.943 350.719 318.859 351.462C321.765 352.239 324.718 352.828 327.685 353.293C326.238 352.88 324.772 352.569 323.336 352.136C321.889 351.746 320.445 351.35 319.017 350.899L314.729 349.568C313.313 349.084 311.889 348.624 310.488 348.098C307.655 347.134 304.87 346.034 302.095 344.909C299.321 343.783 296.571 342.592 293.848 341.326Z" fill="#263238"/>
<path d="M322.496 352.133C322.923 352.569 323.408 352.907 323.907 353.222C324.414 353.525 324.935 353.805 325.518 353.989C325.094 353.554 324.607 353.215 324.107 352.899C323.599 352.596 323.077 352.316 322.496 352.133Z" fill="#263238"/>
<path opacity="0.1" d="M310.712 308.72C307.876 308.13 305.001 307.689 302.131 307.265C299.291 306.845 296.451 306.436 293.608 306.039C291.981 305.812 290.348 305.585 288.717 305.414C288.609 305.403 288.6 305.5 288.705 305.521C291.545 306.084 294.425 306.514 297.286 306.973C300.121 307.428 302.958 307.869 305.8 308.276C307.432 308.51 309.057 308.717 310.694 308.874C310.85 308.889 310.862 308.751 310.712 308.72Z" fill="black"/>
</g>
<defs>
<clipPath id="clip0_148_4254">
<rect width="500" height="500" fill="white"/>
</clipPath>
</defs>
</svg>
