<svg width="493" height="389" viewBox="0 0 493 389" fill="none" xmlns="http://www.w3.org/2000/svg">
<path d="M353.296 0.308105H138.306C133.842 0.308105 130.224 3.92714 130.224 8.39144V332.129C130.224 336.593 133.842 340.212 138.306 340.212H353.296C357.76 340.212 361.379 336.593 361.379 332.129V8.39144C361.379 3.92714 357.76 0.308105 353.296 0.308105Z" fill="#F2F6FB"/>
<path d="M144.57 16.4851C146.69 16.4851 148.409 14.947 148.409 13.0497C148.409 11.1523 146.69 9.61426 144.57 9.61426C142.449 9.61426 140.731 11.1523 140.731 13.0497C140.731 14.947 142.449 16.4851 144.57 16.4851Z" fill="#FF5645"/>
<path d="M157.299 16.4851C159.308 16.4851 160.936 14.947 160.936 13.0497C160.936 11.1523 159.308 9.61426 157.299 9.61426C155.291 9.61426 153.662 11.1523 153.662 13.0497C153.662 14.947 155.291 16.4851 157.299 16.4851Z" fill="#FFCB3D"/>
<path d="M169.625 16.4851C171.522 16.4851 173.06 14.947 173.06 13.0497C173.06 11.1523 171.522 9.61426 169.625 9.61426C167.728 9.61426 166.19 11.1523 166.19 13.0497C166.19 14.947 167.728 16.4851 169.625 16.4851Z" fill="#3ABF7C"/>
<path d="M228.02 9.61426H263.986C264.656 9.61426 265.199 10.1571 265.199 10.8268V15.2726C265.199 15.9422 264.656 16.4851 263.986 16.4851H228.02C227.35 16.4851 226.808 15.9422 226.808 15.2726V10.8268C226.808 10.1571 227.35 9.61426 228.02 9.61426ZM330.666 9.61426H350.064C350.733 9.61426 351.276 10.1571 351.276 10.8268V15.2726C351.276 15.9422 350.733 16.4851 350.064 16.4851H330.666C329.996 16.4851 329.454 15.9422 329.454 15.2726V10.8268C329.454 10.1571 329.996 9.61426 330.666 9.61426ZM303.994 9.61426H322.988C323.657 9.61426 324.2 10.1571 324.2 10.8268V15.2726C324.2 15.9422 323.657 16.4851 322.988 16.4851H303.994C303.325 16.4851 302.782 15.9422 302.782 15.2726V10.8268C302.782 10.1571 303.325 9.61426 303.994 9.61426ZM201.752 117.245H290.658C291.105 117.245 291.466 117.607 291.466 118.053V124.933C291.466 125.38 291.105 125.742 290.658 125.742H201.752C201.306 125.742 200.944 125.38 200.944 124.933V118.053C200.944 117.607 201.306 117.245 201.752 117.245ZM185.588 103.487H306.015C306.461 103.487 306.823 103.849 306.823 104.296V111.176C306.823 111.623 306.461 111.984 306.015 111.984H185.588C185.141 111.984 184.779 111.623 184.779 111.176V104.296C184.779 103.849 185.141 103.487 185.588 103.487ZM144.368 148.23C144.368 147.339 145.095 146.616 145.985 146.616H346.426C347.319 146.616 348.043 147.339 348.043 148.23V279.338C348.043 280.229 347.316 280.952 346.426 280.952H145.985C145.092 280.952 144.368 280.229 144.368 279.338V148.23ZM145.632 291.308H238.071C238.792 291.308 239.053 291.383 239.317 291.524C239.58 291.665 239.787 291.871 239.928 292.135C240.069 292.398 240.144 292.66 240.144 293.38V320.796C240.144 321.517 240.069 321.778 239.928 322.042C239.787 322.305 239.58 322.512 239.317 322.653C239.053 322.794 238.792 322.869 238.071 322.869H145.632C144.911 322.869 144.65 322.794 144.386 322.653C144.123 322.512 143.916 322.305 143.775 322.042C143.634 321.778 143.559 321.517 143.559 320.796V293.38C143.559 292.66 143.634 292.398 143.775 292.135C143.916 291.871 144.123 291.665 144.386 291.524C144.65 291.383 144.911 291.308 145.632 291.308ZM253.531 291.308H345.971C346.691 291.308 346.953 291.383 347.216 291.524C347.479 291.665 347.686 291.871 347.827 292.135C347.968 292.398 348.043 292.66 348.043 293.38V320.796C348.043 321.517 347.968 321.778 347.827 322.042C347.686 322.305 347.479 322.512 347.216 322.653C346.953 322.794 346.691 322.869 345.971 322.869H253.531C252.811 322.869 252.549 322.794 252.286 322.653C252.022 322.512 251.816 322.305 251.675 322.042C251.534 321.778 251.459 321.517 251.459 320.796V293.38C251.459 292.66 251.534 292.398 251.675 292.135C251.816 291.871 252.022 291.665 252.286 291.524C252.549 291.383 252.811 291.308 253.531 291.308Z" fill="#E1E5F0"/>
<path d="M280.132 191.921C286.032 191.921 290.815 187.117 290.815 181.192C290.815 175.266 286.032 170.462 280.132 170.462C274.231 170.462 269.448 175.266 269.448 181.192C269.448 187.117 274.231 191.921 280.132 191.921Z" fill="#F2F6FB"/>
<path d="M246.003 93.3304V91.7137C248.251 91.7137 250.459 91.4202 252.588 90.8468L253.009 92.4078C250.743 93.0181 248.393 93.3304 246.003 93.3304ZM259.531 89.6819L258.716 88.2857C260.636 87.1649 262.401 85.7941 263.965 84.2124L265.114 85.3491C263.451 87.0314 261.573 88.4895 259.531 89.6819ZM269.383 79.7143L267.978 78.9156C269.075 76.9855 269.913 74.9172 270.468 72.7578L272.033 73.16C271.443 75.4586 270.551 77.6602 269.383 79.7143ZM272.875 66.1075L271.259 66.1279C271.23 63.8812 270.908 61.6765 270.307 59.554L271.862 59.1133C272.502 61.3724 272.845 63.7183 272.875 66.1075ZM269.051 52.6233L267.665 53.4563C266.52 51.5508 265.127 49.803 263.525 48.2598L264.647 47.0955C266.35 48.7369 267.832 50.5961 269.051 52.6233ZM258.959 42.9005L258.179 44.3162C256.236 43.2447 254.157 42.4333 251.991 41.9067L252.372 40.3357C254.679 40.8964 256.891 41.7601 258.959 42.9005ZM245.311 39.585L245.352 41.2011C243.107 41.2579 240.906 41.6082 238.791 42.2376L238.33 40.688C240.582 40.0182 242.924 39.6453 245.311 39.585ZM231.879 43.5836L232.729 44.9583C230.839 46.1285 229.109 47.5445 227.587 49.1659L226.409 48.0593C228.028 46.3346 229.868 44.8286 231.879 43.5836ZM222.287 53.8014L223.713 54.5635C222.667 56.5204 221.883 58.6094 221.384 60.7837L219.809 60.4223C220.339 58.1079 221.174 55.8842 222.287 53.8014ZM219.149 67.4931L220.764 67.4316C220.85 69.6749 221.229 71.8713 221.886 73.9798L220.343 74.4609C219.643 72.2167 219.24 69.8792 219.149 67.4931ZM223.321 80.8732L224.684 80.0047C225.878 81.88 227.316 83.5916 228.957 85.0932L227.865 86.2858C226.121 84.6887 224.591 82.8682 223.321 80.8732ZM233.659 90.3331L234.402 88.8976C236.372 89.918 238.47 90.6751 240.651 91.1457L240.31 92.726C237.989 92.2251 235.755 91.4192 233.659 90.3331ZM262.922 256.89L248.9 256.954L248.939 256.89H187.697C183.903 256.89 182.46 254.282 184.471 251.066L226.323 184.158C228.335 180.942 231.665 180.896 233.763 184.063L264.862 231.384L275.863 213.76C277.637 210.918 280.579 210.874 282.436 213.663L307.907 251.906C309.763 254.694 308.572 256.71 305.218 256.606L286.592 256.783L280.711 256.81L280.76 256.89C280.76 256.89 277.687 256.89 273.891 256.89H262.922Z" fill="#3C41FF"/>
<path opacity="0.176986" d="M280.594 256.982C280.594 256.982 277.521 256.982 273.725 256.982H187.531C183.737 256.982 182.293 254.374 184.305 251.158L226.156 184.25C228.168 181.034 231.499 180.988 233.597 184.155L269.788 239.225" fill="#444444"/>
<path d="M490.696 388.712H449.274C448.304 388.712 447.456 388.013 447.456 387.173V386.614C447.456 385.774 448.264 385.075 449.274 385.075H490.696C491.666 385.075 492.515 385.774 492.515 386.614V387.173C492.515 388.013 491.707 388.712 490.696 388.712ZM395.527 385.075C396.531 385.075 397.345 385.889 397.345 386.893C397.345 387.898 396.531 388.712 395.527 388.712H329.656C328.651 388.712 327.837 387.898 327.837 386.893C327.837 385.889 328.651 385.075 329.656 385.075H395.527Z" fill="#9105C6"/>
<path d="M490.917 385.087C490.845 385.079 490.771 385.074 490.696 385.074H449.413L452.68 364.457L481.615 360.536L490.917 385.087ZM395.768 385.09C395.689 385.08 395.608 385.074 395.527 385.074H329.942C329.898 384.853 329.876 384.574 329.883 384.213C329.928 383.931 329.934 383.608 330.02 383.286C330.539 381.355 331.167 380.072 333.006 378.932C334.845 377.792 336.722 376.773 338.678 375.878C345.891 372.487 348.355 372.53 353.098 369.419C355.061 368.12 356.866 366.615 358.551 364.987C359.675 363.902 361.969 362.139 365.434 359.698L396.59 360.396L395.768 385.09Z" fill="#474961"/>
<path d="M439.619 137.408C442.695 143.397 451.02 161.98 458.452 199.808C459.064 202.947 459.652 206.002 460.215 208.969L460.272 208.9C470.457 247.282 477.527 274.152 481.481 289.51C485.543 305.284 479.91 305.037 482.99 318.308C484.766 325.959 490.716 332.111 490.664 340.078C490.656 341.336 490.687 343.852 490.755 347.626C490.878 354.367 485.953 360.139 479.278 361.077L452.316 364.867C445.022 365.892 438.279 360.81 437.254 353.516C437.244 353.449 437.235 353.381 437.227 353.314C436.499 347.495 436.131 344.036 436.122 342.936C436.102 340.658 436.074 338.583 436.03 336.693C434.477 330.335 432.858 323.718 431.555 318.384C429.797 315.668 427.729 311.913 426.099 305.84C425.027 301.844 422.59 286.291 418.787 259.181C418.714 258.817 418.575 257.696 418.37 255.818L413.047 236.224C412.825 238.513 412.599 240.828 412.37 243.164C412.839 275.636 412.827 293.878 412.333 297.889C410.778 310.515 406.126 313.991 405.99 317.958C405.857 321.844 406.448 327.508 407.57 336.02C407.714 337.11 407.831 340.587 407.92 346.45C407.921 346.518 407.922 346.586 407.922 346.654C407.922 352.558 404.087 357.565 398.772 359.321C395.429 362.365 390.046 360.049 375.91 360.146C375.91 360.146 373.735 360.165 370.863 359.992L367.359 359.992C365.285 359.992 363.311 359.515 361.549 358.661C359.878 358.193 358.495 357.577 357.725 356.768C357.082 356.073 356.676 355.285 356.676 355.285C356.484 354.855 356.346 354.432 356.247 354.032C355.13 352.35 354.38 350.393 354.121 348.269C353.664 344.522 353.344 342.026 353.161 340.781C352.002 332.899 357.037 325.978 357.731 318.155C358.934 304.585 353.391 305.613 355.218 289.427C356.98 273.815 360.315 255.793 365.222 235.362C368.06 203.185 371.795 167.03 375.91 154.88C375.979 154.663 378.545 146.052 382.256 139.972C382.369 140.094 382.487 140.212 382.609 140.324C383.073 140.76 383.535 141.076 383.996 141.31C384.919 141.86 385.684 142.049 385.684 142.049C385.684 142.049 385.722 142.048 385.761 142.088C385.761 142.088 410.537 148.285 435.12 141.226L435.195 141.184C435.195 141.184 435.953 140.969 436.856 140.387C437.271 140.138 437.759 139.765 438.209 139.353C438.772 138.802 439.237 138.139 439.619 137.408Z" fill="#8F4AFF"/>
<path opacity="0.176986" d="M387.557 142.483L400.493 190.186L413.035 236.353C412.817 238.6 412.595 240.872 412.37 243.164C412.839 275.636 412.827 293.878 412.333 297.889C410.778 310.515 406.126 313.991 405.99 317.958C405.857 321.844 406.448 327.508 407.57 336.02C407.714 337.11 407.831 340.587 407.92 346.45C407.921 346.518 407.922 346.586 407.922 346.654C407.922 352.558 404.087 357.565 398.772 359.321C395.429 362.365 390.046 360.049 375.91 360.146C375.91 360.146 373.735 360.165 370.863 359.992L367.359 359.992C365.285 359.992 363.311 359.515 361.549 358.661C359.878 358.193 358.495 357.577 357.725 356.768C357.082 356.073 356.676 355.285 356.676 355.285C356.484 354.855 356.346 354.432 356.247 354.032C355.13 352.35 354.38 350.393 354.121 348.269C353.664 344.522 353.344 342.026 353.161 340.781C352.002 332.899 357.037 325.978 357.731 318.155C358.934 304.585 353.391 305.613 355.218 289.427C356.98 273.815 360.315 255.793 365.222 235.362C368.06 203.185 371.795 167.03 375.91 154.88C375.979 154.663 378.545 146.052 382.256 139.972C382.369 140.094 382.487 140.212 382.609 140.324C383.073 140.76 383.535 141.076 383.996 141.31C384.919 141.86 385.684 142.049 385.684 142.049C385.684 142.049 385.722 142.048 385.761 142.088C385.761 142.088 386.393 142.246 387.557 142.483Z" fill="#444444"/>
<path d="M440.049 86.6715C440.095 87.136 440.141 87.6159 440.185 88.1109L440.187 88.2322L440.298 90.2109C440.949 112.23 441.274 122.128 441.456 126.005C441.456 126.005 441.425 126.41 441.473 127.016C441.58 128.792 441.746 136.106 438.377 139.399C437.928 139.811 437.439 140.183 437.025 140.433C436.122 141.014 435.364 141.23 435.364 141.23L435.289 141.272C410.706 148.33 385.93 142.133 385.93 142.133C385.511 142.023 385.107 141.91 384.338 141.526C383.583 141.15 382.865 140.595 382.635 140.379C379.191 137.205 379.244 129.881 379.289 128.101C379.279 127.535 379.272 127.091 379.272 127.091C379.315 123.392 379.3 114.411 379.199 94.9247C369.547 94.0293 365.64 91.2449 367.476 86.5716C371.649 75.956 374.413 65.7699 390.956 64.593C395.015 62.569 399.447 61.8913 402.532 61.685C404.319 61.5729 405.652 61.5901 406.185 61.6212C406.413 61.6172 406.719 61.6523 407.29 61.6827C407.862 61.7132 408.509 61.7423 409.233 61.7701C409.955 61.717 410.602 61.6653 411.172 61.615C411.742 61.5646 412.008 61.5195 412.274 61.5149C412.844 61.4645 414.137 61.4015 415.927 61.4511C416.354 61.4647 416.807 61.4861 417.281 61.5178C417.521 61.4629 417.763 61.4088 418.01 61.3557C435.012 57.6857 440.388 66.9771 447.291 76.3206C450.054 80.0604 447.64 83.5107 440.049 86.6715Z" fill="#F0549E"/>
<path opacity="0.176986" d="M390.699 64.5918C388.337 65.7826 386.106 67.4328 384.346 69.7155C383.564 70.7397 382.563 72.2933 381.803 74.5298C381.694 74.8551 381.585 75.1399 381.477 75.4652C381.222 76.1568 380.677 77.6216 380.21 79.2062C379.708 80.9936 379.31 84.3961 379.05 89.1301L379.052 89.2513L379.011 91.2327C379.018 92.4808 379.024 93.6897 379.03 94.8608C369.616 93.9332 365.818 91.1592 367.634 86.5389C371.771 76.0124 374.523 65.9083 390.699 64.5918Z" fill="#444444"/>
<path d="M437.257 185.543C436.92 185.805 436.721 185.921 436.721 185.921C431.416 185.031 439.001 165.38 441.262 159.818L422.22 91.6929C434.041 89.1934 441.839 86.4688 445.613 83.5193C455.879 124.833 461.427 151.331 462.255 163.013C462.318 163.383 462.357 163.78 462.371 164.204C462.592 171.002 460.333 181.406 455.595 195.415C455.557 195.497 443.233 201.549 434.563 196.433L437.257 185.543ZM385.401 26.0535C385.418 26.0309 385.435 26.0081 385.452 25.9849C388.999 22.0093 395.528 22.1268 398.469 22.761C398.826 22.8392 400.095 23.1351 401.932 23.4501C402.928 23.6361 403.732 23.7206 404.21 23.8115C410.173 24.6821 412.62 24.2079 415.465 26.1325C415.998 26.473 417.208 27.3317 418.186 28.8569C420.943 33.1699 419.638 38.2347 419.277 39.741C418.072 44.2472 415.124 46.782 414.197 47.8632C413.508 48.6807 412.551 49.5933 411.621 50.4178L412.522 63.4622C412.531 63.7449 412.42 64.0319 412.182 64.1615C411.155 64.8445 409.686 65.6237 407.842 66.0925C404.517 66.9771 401.629 66.5117 399.997 66.0834C399.671 66.0139 399.417 65.6993 399.406 65.3761L398.918 56.8221C398.564 56.9145 398.187 57.0103 397.785 57.1105C394.233 58.0377 394.447 57.9382 394.197 57.9933C391.598 58.3702 389.436 58.0617 389.042 57.9391C387.608 57.6664 386.208 56.3 385.057 54.1064C383.495 51.1788 382.295 46.7449 381.947 41.5471C381.863 40.8067 381.898 40.079 381.934 39.3512L382.53 32.1394C382.658 30.5273 383.189 28.9576 384.145 27.595C384.534 26.9857 384.911 26.497 385.359 26.0971C385.373 26.0825 385.387 26.0679 385.401 26.0535ZM367.511 90.5315C368.796 92.8524 372.692 94.3147 379.199 94.9183C379.27 108.551 379.299 117.042 379.295 122.18C369.59 134.133 363.097 132.268 363.097 132.268C358.574 132.464 355.116 130.407 353.811 129.618C342.426 122.751 320.814 84.535 317.086 77.8405C312.165 77.1664 307.572 75.8733 303.305 73.9612C296.5 70.9117 293.757 68.0184 295.078 65.2814L329.953 67.5334L330.049 67.4671L360.294 99.3023C363.464 95.9342 365.617 93.1834 367.511 90.5315Z" fill="#F2A98A"/>
<path opacity="0.2" d="M367.641 90.5316C368.926 92.8525 372.823 94.3147 379.33 94.9184C379.4 108.551 379.429 117.042 379.425 122.18C369.72 134.133 363.227 132.268 363.227 132.268C358.704 132.464 355.246 130.407 353.941 129.618C342.556 122.751 320.944 84.535 317.217 77.8406C312.296 77.1665 307.702 75.8734 303.435 73.9613C296.63 70.9117 293.888 68.0185 295.209 65.2815L330.083 67.5334L330.179 67.4671L360.424 99.3023C363.594 95.9343 365.747 93.1835 367.641 90.5316Z" fill="#8C2A00"/>
<path d="M398.263 56.9639L404.217 55.0639L399.346 62.507L398.263 56.9639Z" fill="#482D1F"/>
<path d="M412.779 40.6358C412.822 39.6565 412.62 38.6512 412.093 37.7261C410.997 35.7821 408.692 34.5238 406.695 34.9641C405.572 35.2118 404.76 35.9799 404.671 36.0518C403.442 37.3044 403.049 38.7261 403.049 38.7261L402.852 39.6697C388.368 34.1438 385.56 27.1696 384.805 26.7298C385.035 26.4695 385.262 26.2495 385.403 26.0612C388.99 22.0898 395.641 22.2199 398.621 22.8584C399.019 22.9408 400.288 23.2368 402.164 23.5559C403.201 23.7461 404.005 23.8306 404.483 23.9215C410.566 24.8049 413.054 24.3348 415.939 26.2637C416.472 26.6042 417.723 27.4671 418.7 28.9923C421.749 33.6205 420.36 38.717 419.831 39.8806C419.461 40.6951 418.88 41.2029 418.88 41.2029C416.739 40.882 414.744 40.7399 412.779 40.6358ZM380.907 37.3396C380.508 37.2377 380.414 36.7066 380.711 36.4389C381.092 36.1351 381.754 35.846 382.561 35.8883C384.216 35.9751 385.934 37.1579 384.053 37.5449C382.948 37.7703 381.665 37.5412 380.907 37.3396ZM389.206 38.0578C388.806 37.956 388.713 37.4249 389.05 37.1593C389.431 36.8555 390.093 36.5664 390.941 36.6108C392.595 36.6976 394.312 37.9207 392.432 38.2674C391.245 38.529 389.964 38.2595 389.206 38.0578Z" fill="#482D1F"/>
<path d="M383.907 40.3297C383.831 41.0137 383.65 42.1375 383.226 42.5199C382.508 43.0894 381.726 41.0248 382.316 39.8011C382.545 39.287 382.832 39.2211 383.153 39.2783C383.633 39.3844 383.932 39.8453 383.907 40.3297ZM391.135 40.6276C391.139 41.3158 391.08 42.446 390.651 42.9091C390.01 43.5636 388.981 41.567 389.453 40.2966C389.642 39.7803 389.93 39.6741 390.253 39.691C390.738 39.7164 391.12 40.1411 391.135 40.6276Z" fill="#482D1F"/>
<path d="M387.392 48.7282C387.679 48.6623 388.375 48.4964 388.52 48.0588C388.524 47.9781 388.571 47.8591 388.535 47.7763C388.388 47.4853 387.895 47.6214 387.167 47.6236C385.871 47.6367 384.828 47.4606 384.828 47.4606C384.828 47.4606 385.068 48.2826 385.257 48.5354C385.629 49.1619 386.942 48.826 387.392 48.7282Z" fill="#482D1F"/>
<path d="M385.073 40.4718L385.08 40.4159L385.074 40.4436L385.073 40.4718ZM384.248 44.7029C384.148 45.1541 384.478 45.6196 384.934 45.7203C385.034 45.735 385.034 45.735 385.099 45.7434C385.777 45.8315 386.202 45.8733 386.933 45.9116C387.155 45.9233 387.346 45.752 387.357 45.5291C387.369 45.3062 387.198 45.116 386.975 45.1043C386.267 45.0672 385.862 45.0274 385.203 44.9418L385.073 44.9249C385.072 44.9231 385.038 44.8747 385.039 44.8671L385.873 40.5699L385.88 40.5141L386.005 38.1328C386.016 37.9099 385.845 37.7197 385.622 37.708C385.4 37.6963 385.209 37.8676 385.198 38.0905L385.074 40.4436L384.248 44.7029Z" fill="#482D1F"/>
<path d="M412.752 40.0121C412.812 41.2092 412.465 42.4692 411.822 43.4441C411.036 44.6752 410.047 45.2877 408.809 45.7088C408.597 45.7807 408.484 46.0102 408.556 46.2216C408.628 46.4329 408.857 46.546 409.069 46.4741C409.613 46.289 410.05 46.1009 410.566 45.7812C411.327 45.3103 411.987 44.6885 412.5 43.8842C413.235 42.7711 413.628 41.3411 413.559 39.9715C413.548 39.7486 413.358 39.5769 413.135 39.5882C412.912 39.5994 412.741 39.7892 412.752 40.0121Z" fill="#482D1F"/>
<path d="M443.631 183.523C443.695 183.195 444.013 182.98 444.342 183.044C444.67 183.108 444.885 183.427 444.821 183.755C444.418 185.819 444.055 187.413 443.205 190.955C442.36 194.479 441.999 196.061 441.601 198.103C441.537 198.432 441.219 198.646 440.89 198.582C440.562 198.518 440.347 198.2 440.411 197.871C440.814 195.807 441.177 194.213 442.027 190.672C442.872 187.147 443.233 185.565 443.631 183.523ZM451.827 181.745C451.911 181.421 452.242 181.226 452.566 181.311C452.89 181.395 453.085 181.726 453 182.05C452.423 184.27 452.015 186 451.135 189.862C450.253 193.736 449.842 195.475 449.261 197.71C449.177 198.034 448.846 198.228 448.522 198.144C448.198 198.06 448.003 197.729 448.088 197.405C448.665 195.185 449.073 193.455 449.953 189.593C450.835 185.719 451.246 183.98 451.827 181.745Z" fill="#482D1F"/>
<path d="M315.309 74.3758C329.593 74.3758 341.173 62.7044 341.173 48.307C341.173 33.9097 329.593 22.2383 315.309 22.2383C301.025 22.2383 289.446 33.9097 289.446 48.307C289.446 62.7044 301.025 74.3758 315.309 74.3758Z" fill="#474BFF"/>
<path d="M315.379 47.6985C312.526 47.6985 310.213 45.4136 310.213 42.5951C310.213 39.7766 312.526 37.4917 315.379 37.4917C318.233 37.4917 320.546 39.7766 320.546 42.5951C320.546 45.4136 318.233 47.6985 315.379 47.6985ZM315.379 50.2502C320.552 50.2502 324.744 54.3915 324.744 59.5H306.015C306.015 54.3915 310.207 50.2502 315.379 50.2502Z" fill="#F2F6FB"/>
<path d="M39.4183 298.831V298.906C39.4183 299.876 40.2669 300.685 41.2368 300.685H71.7483L60.9982 320.408C53.3199 334.473 45.6821 348.497 38.0443 362.562L25.3954 385.762C24.9509 386.57 25.3146 387.621 26.1632 388.106L26.3249 388.187C27.1735 388.672 28.2646 388.389 28.6688 387.621L75.9909 300.685H107.512L154.834 387.621C155.238 388.389 156.33 388.631 157.178 388.187L157.34 388.106C158.188 387.621 158.552 386.57 158.108 385.762L145.459 362.562C137.781 348.497 130.143 334.473 122.505 320.408L111.755 300.685H152.208C153.218 300.685 154.026 299.876 154.026 298.906V298.704C154.026 297.734 153.177 296.926 152.208 296.926H124.728C106.825 296.926 88.8823 296.926 70.9395 296.926H42.9863L39.5799 269.362C37.2361 250.608 34.9326 231.815 32.5887 213.021L28.7496 181.981C28.6283 180.89 27.6989 180.081 26.6886 180.202L26.4865 180.243C25.5166 180.364 24.8296 181.375 24.9509 182.385L39.3779 298.623C39.3884 298.694 39.4019 298.763 39.4183 298.831Z" fill="#D8DEED"/>
<path d="M127.286 385.233C127.038 385.108 126.76 385.037 126.468 385.037H104.616L64.5133 355.156L79.7088 333.867L104.037 351.529C105.37 356.055 106.744 360.582 108.118 365.149C108.846 367.534 109.573 369.878 110.3 372.222C112.564 373.111 114.503 373.92 115.877 374.526C118.504 375.658 120.727 376.708 123.151 378.285C123.151 378.285 125.253 379.578 126.425 381.437C126.788 382.043 127.112 382.73 127.314 383.458C127.395 383.781 127.395 384.105 127.435 384.388C127.422 384.653 127.362 384.95 127.286 385.233ZM202.978 385.165C202.845 385.134 202.706 385.118 202.564 385.118H137.501C137.379 385.118 137.26 385.13 137.145 385.153L136.513 359.957L167.067 359.868C170.801 362.309 173.23 364.072 174.354 365.158C176.04 366.786 177.844 368.29 179.807 369.59C184.55 372.701 187.014 372.658 194.228 376.048C196.183 376.944 198.06 377.962 199.899 379.102C201.738 380.243 202.366 381.525 202.885 383.456C202.972 383.778 202.977 384.101 203.023 384.384C203.028 384.703 203.012 384.958 202.978 385.165Z" fill="#474961"/>
<path d="M103.144 388.349C103.104 388.324 103.065 388.296 103.026 388.268L62.453 358.036C61.6448 357.43 61.4831 356.258 62.0893 355.449C62.6955 354.641 63.8674 354.479 64.6756 355.086L104.815 384.994H126.667C127.678 384.994 128.526 385.843 128.526 386.853C128.526 387.863 127.678 388.712 126.667 388.712H104.239C103.828 388.712 103.45 388.578 103.144 388.349ZM137.7 385.075H202.763C203.767 385.075 204.581 385.889 204.581 386.893C204.581 387.898 203.767 388.712 202.763 388.712H137.7C136.695 388.712 135.881 387.898 135.881 386.893C135.881 385.889 136.695 385.075 137.7 385.075Z" fill="#FF5645"/>
<path d="M180.745 282.302C177.734 298.132 176.502 321.333 179.455 335.937C179.455 335.937 182.522 361.036 180.373 361.198C179.852 361.238 174.312 361.481 173.726 361.521C159.143 362.491 133.819 364.431 130.043 364.431C127.526 364.431 126.267 362.814 126.267 359.581L125.446 350.899V350.829C122.661 354.152 119.77 357.599 116.772 361.167C112.313 362.491 105.569 360.595 96.5387 355.479C87.5086 350.363 80.519 345.32 75.5701 340.349C73.1858 338.813 67.3832 330.319 68.9188 328.097L79.0622 313.304L85.1239 304.453C86.8212 301.947 88.1025 300.286 89.921 297.659C89.921 297.618 90.2466 297.137 90.2466 297.097C89.6 297.097 90.3371 296.572 85.7301 296.531C81.1232 296.491 56.3103 295.965 46.8136 282.264C43.0252 276.798 42.732 270.745 42.4491 268.037C41.3984 257.502 44.1773 248.964 50.7859 242.424C52.5561 241.123 53.8587 240.352 54.6939 240.109C56.0275 239.705 63.0591 239.503 64.4331 239.422L92.6405 239.059C106.063 238.88 117.27 238.728 126.261 238.603L126.267 238.533L126.261 238.603C144.43 238.35 153.55 238.206 153.622 238.169C153.784 238.089 171.218 238.816 175.905 241.524C184.884 246.785 189.606 263.365 180.745 282.302Z" fill="#FFC855"/>
<path opacity="0.2" d="M180.657 282.461C177.658 298.288 176.436 321.43 179.383 336.007C179.383 336.007 182.45 361.106 180.302 361.268C179.781 361.308 174.24 361.551 173.654 361.591C159.072 362.561 133.747 364.501 129.971 364.501C127.454 364.501 126.195 362.884 126.195 359.651L125.375 350.983C160.19 309.433 178.412 287.017 180.042 283.736C180.254 283.31 180.459 282.885 180.657 282.461ZM126.179 238.801L126.195 238.603L126.179 238.801ZM141.442 238.583C141.434 238.583 141.426 238.583 141.419 238.583L140.843 238.482H140.908C141.087 238.516 141.265 238.549 141.442 238.583Z" fill="#8C2A00"/>
<path d="M108.576 270.138C106.582 273.154 104.482 276.085 99.3834 283.06C94.2678 290.059 92.1614 292.999 90.1478 296.045C89.9016 296.418 90.0039 296.919 90.3763 297.165C90.7486 297.411 91.25 297.309 91.4962 296.937C93.4901 293.92 95.5899 290.99 100.688 284.014C105.804 277.016 107.91 274.076 109.924 271.03C110.17 270.657 110.068 270.156 109.695 269.91C109.323 269.663 108.822 269.766 108.576 270.138Z" fill="#482D1F"/>
<path d="M176.221 166.547C177.593 167.619 177.836 169.6 176.765 170.972C176.748 170.993 176.732 171.014 176.715 171.034L160.018 191.328C159.161 192.37 157.629 192.538 156.566 191.707C155.503 190.877 155.296 189.35 156.099 188.266L171.748 167.154C172.785 165.755 174.759 165.462 176.158 166.499C176.179 166.514 176.2 166.531 176.221 166.547Z" fill="#474961"/>
<path d="M172.766 170.745C176.283 173.493 181.318 172.926 184.012 169.478C185.306 167.821 183.505 164.367 183.952 159.243C184.056 158.047 184.887 156.112 186.444 153.44L186.444 153.44C186.556 153.248 186.491 153 186.298 152.888C186.204 152.833 186.092 152.818 185.987 152.847C177.906 155.087 173.001 157.313 171.273 159.525C168.58 162.973 169.248 167.996 172.766 170.745Z" fill="#F2F6FB"/>
<path d="M176.589 165.895C177.418 166.542 180.134 164.866 180.53 165.743C181.86 168.683 181.819 172.657 184 169.865C185.362 168.123 183.541 164.549 184.069 159.208C184.193 157.957 185.082 155.924 186.736 153.11L186.736 153.11C186.85 152.917 186.785 152.669 186.593 152.556C186.497 152.5 186.382 152.486 186.275 152.517C177.872 154.954 172.762 157.336 170.944 159.663C169.315 161.748 170.622 162.83 173.104 163.171C173.972 163.291 174.559 162.269 175.783 162.033C177.143 161.771 175.783 165.264 176.589 165.895Z" fill="#474BFF"/>
<path d="M97.7842 166.568C107.83 170.055 114.192 180.368 112.315 191.272L103.881 238.91L57.2117 239.745C54.5402 239.265 52.6563 238.147 51.5601 236.39C49.9158 233.755 50.3637 230.415 50.5877 229.129L59.0098 182.026C61.0912 170.073 72.3612 162.026 84.3005 163.918L85.1171 160.076C85.2099 159.639 85.639 159.361 86.0757 159.453L97.9341 161.974C98.3707 162.067 98.6494 162.497 98.5566 162.933L97.7842 166.568Z" fill="#FF4F03"/>
<path d="M88.117 146.499C87.2679 155.122 86.8121 159.477 86.7498 159.563C86.6856 159.652 90.3474 160.443 97.7351 161.936L98.3911 158.6C98.5634 158.665 98.7408 158.73 98.9233 158.797C102.341 160.112 102.137 159.994 102.381 160.071C104.938 160.713 107.12 160.635 107.523 160.587C110.913 160.286 114.764 154.034 116.386 145.072C116.535 144.342 116.563 143.614 116.631 142.885L116.828 135.645C116.881 134.028 116.529 132.417 115.737 131.016C115.403 130.415 115.07 129.855 114.698 129.417C110.439 123.913 102.78 125.057 101.409 125.243C101.247 125.245 101.086 125.289 100.925 125.292C99.3957 125.682 98.017 125.423 96.5617 125.408C95.9152 125.419 95.3991 125.954 95.37 126.601L95.3487 136.95C95.3252 137.92 92.5256 135.707 91.4333 135.645C89.491 135.517 87.3739 138.544 86.6812 140.537C85.9105 142.693 86.5951 144.864 87.8724 146.256C87.9528 146.341 88.0345 146.422 88.117 146.499ZM114.843 218.054C115.701 217.762 116.556 217.469 117.41 217.174C123.943 214.921 130.372 212.623 137.349 210.07C139.7 209.234 140.708 208.816 142.395 208.145C147.892 205.942 168.577 197.474 169.567 196.685C173.052 195.191 170.764 182.777 170.764 178.242C164.991 180.781 157.054 184.034 146.955 187.999C144.917 189.049 143.447 190.413 142.395 191.55C140.678 191.679 126.944 194.069 114.29 196.185C114.637 196.126 114.984 196.067 115.332 196.008C115.25 192.778 114.654 187.848 112.089 182.495C112.727 185.288 112.835 188.258 112.316 191.271L111.359 196.674C103.957 197.902 97.3032 198.962 94.1783 199.318C94.0014 198.806 92.6102 192.774 90.0046 181.221L65.9185 187.998C66.4713 191.317 67.7977 196.638 69.8977 203.959C73.0478 214.941 74.264 223.142 82.5036 225.545C84.4242 226.107 86.9137 226.02 92.4408 224.684C97.6433 223.425 102.476 222.042 107.125 220.583L103.889 238.856L103.872 238.857L103.882 238.911L148.21 238.294C150.55 238.221 147.823 236.622 140.031 233.497C132.238 230.372 124.296 227.715 116.202 225.525L115.959 217.675C115.587 217.802 115.215 217.928 114.843 218.054ZM60.6597 176.78C66.5819 179.344 72.315 179.643 77.8592 177.676C83.4033 175.708 86.2202 171.291 86.3099 164.424C81.4698 162.951 76.388 163.352 71.0645 165.627C65.7409 167.902 62.2727 171.62 60.6597 176.78Z" fill="#DB9E75"/>
<path d="M97.764 161.693L94.3632 156.838L98.3946 158.602L97.764 161.693Z" fill="#482D1F"/>
<path d="M114.112 143.448C114.159 142.959 114.536 142.568 115.02 142.534C115.343 142.512 115.636 142.653 115.797 143.209C116.169 144.479 115.049 146.421 114.474 145.732C114.037 145.277 114.079 144.139 114.112 143.448ZM106.919 143.708C106.966 143.219 107.344 142.828 107.828 142.794C108.15 142.771 108.444 142.913 108.604 143.469C108.976 144.739 107.856 146.681 107.282 145.992C106.845 145.537 106.846 144.402 106.919 143.708Z" fill="#482D1F"/>
<path d="M109.504 151.711C109.217 151.65 108.514 151.456 108.362 151.021C108.357 150.941 108.308 150.823 108.343 150.739C108.487 150.486 109.02 150.57 109.751 150.6C111.049 150.631 112.089 150.437 112.089 150.437C112.089 150.437 111.823 151.266 111.635 151.481C111.277 152.155 109.956 151.801 109.504 151.711Z" fill="#482D1F"/>
<path d="M116.918 140.133C117.316 140.024 117.443 139.529 117.141 139.266C116.756 138.969 116.123 138.608 115.314 138.624C113.655 138.659 111.909 139.754 113.722 140.194C114.879 140.518 116.161 140.307 116.918 140.133ZM109.098 140.68C109.495 140.571 109.622 140.076 109.28 139.816C108.895 139.519 108.262 139.158 107.413 139.177C105.754 139.212 104.011 140.346 105.821 140.747C107.018 141.068 108.3 140.857 109.098 140.68ZM88.1411 152.462C89.636 151.46 90.6517 149.888 91.1882 147.744C90.4509 147.535 89.3156 147.084 88.3943 146.046C87.1575 144.653 86.4736 142.522 87.2457 140.447C87.9384 138.454 89.9318 136.884 91.8741 137.011C92.9665 137.073 93.8256 137.665 93.9482 137.743C95.2992 138.73 95.8875 140.014 95.8875 140.014L96.7613 142.232C98.1509 141.255 100.947 137.551 105.149 131.12C107.484 130.84 109.287 130.645 110.558 130.536C112.464 130.374 114.509 130.565 115.279 130.257C115.224 130.393 115.168 130.531 115.113 130.669C115.25 130.429 115.32 130.296 115.32 130.296C115.359 130.174 114.702 129.579 114.7 129.499C110.687 124.192 103.299 124.685 101.928 124.871C101.767 124.873 101.606 124.917 101.443 124.879C99.1848 125.161 97.2865 125.235 95.9942 125.297C89.8547 125.526 87.4567 124.759 84.3723 126.349C83.8116 126.642 82.4902 127.352 81.3431 128.787C80.6797 129.59 80.1819 130.444 79.8116 131.307C76.2887 131.192 73.7874 132.943 72.3077 136.561C70.3319 141.391 73.3619 145.767 77.1359 147.556C78.7267 151.521 83.0898 154.376 86.6047 153.234C87.2373 153.029 87.7494 152.771 88.1411 152.462Z" fill="#482D1F"/>
<path d="M112.039 143.931L112.033 143.873L112.038 143.902L112.039 143.931ZM112.818 148.153L112.824 148.198C112.854 148.638 112.582 149.067 112.148 149.171C112.068 149.185 112.023 149.191 111.979 149.197C111.554 149.255 111.248 149.28 110.15 149.357C109.927 149.372 109.734 149.205 109.719 148.982C109.703 148.759 109.871 148.566 110.094 148.551C111.173 148.475 111.47 148.45 111.87 148.396C111.912 148.39 111.953 148.384 111.995 148.378C111.986 148.379 112.016 148.33 112.018 148.27L111.238 144.019L111.231 143.96L111.145 141.576C111.137 141.353 111.312 141.165 111.535 141.157C111.758 141.149 111.945 141.324 111.953 141.547L112.038 143.902L112.818 148.153Z" fill="#482D1F"/>
<path d="M89.5804 180.941L89.5804 177.683C89.5804 177.348 89.8518 177.077 90.1865 177.077C90.5213 177.077 90.7927 177.348 90.7927 177.683L90.7927 180.941C90.7928 181.276 90.5214 181.548 90.1866 181.548C89.8518 181.548 89.5804 181.276 89.5804 180.941Z" fill="#482D1F"/>
<path opacity="0.2" d="M112.101 182.495C112.795 183.91 113.479 185.75 114.153 188.015C114.826 190.279 115.214 192.944 115.316 196.01L111.355 196.657C111.715 194.697 111.963 193.294 112.101 192.446C112.361 190.848 112.643 189.437 112.643 188.329C112.643 186.343 112.463 184.399 112.101 182.495ZM107.123 220.582L115.957 217.676L116.202 225.524C130.627 229.848 140.732 233.444 146.518 236.312C147.683 236.89 148.407 237.303 148.689 237.551C148.808 237.662 148.901 237.757 148.969 237.838C149.135 238.036 148.969 238.24 148.443 238.277C148.093 238.302 133.235 238.499 103.871 238.87L107.123 220.582Z" fill="#8C2A00"/>
</svg>
